<?xml version="1.0" standalone="no"?>
<!DOCTYPE svg PUBLIC "-//W3C//DTD SVG 20010904//EN"
 "http://www.w3.org/TR/2001/REC-SVG-20010904/DTD/svg10.dtd">
<svg version="1.0" xmlns="http://www.w3.org/2000/svg"
 width="6000.000000pt" height="6000.000000pt" viewBox="0 0 6000.000000 6000.000000"
 preserveAspectRatio="xMidYMid meet">
<metadata>
Created by potrace 1.16, written by Peter Selinger 2001-2019
</metadata>
<g transform="translate(0.000000,6000.000000) scale(0.100000,-0.100000)"
fill="#000000" stroke="none">
<path d="M28540 59959 c-58 -3 -256 -14 -440 -24 -184 -9 -344 -21 -355 -25
-11 -5 -132 -14 -270 -21 -137 -6 -256 -16 -262 -21 -7 -6 -83 -14 -170 -19
-87 -5 -185 -14 -219 -19 -33 -5 -150 -19 -260 -31 -297 -31 -665 -76 -769
-94 -43 -8 -187 -30 -350 -54 -77 -11 -180 -27 -230 -35 -49 -8 -119 -19 -155
-25 -36 -5 -103 -17 -150 -26 -47 -10 -121 -23 -165 -31 -44 -7 -116 -20 -160
-29 -44 -8 -129 -24 -190 -35 -94 -16 -262 -49 -410 -79 -22 -5 -47 -11 -55
-14 -8 -4 -53 -14 -100 -23 -218 -41 -659 -140 -700 -157 -8 -3 -44 -11 -80
-17 -36 -6 -78 -15 -95 -21 -16 -5 -88 -23 -160 -39 -71 -17 -139 -35 -150
-40 -11 -5 -42 -14 -70 -19 -27 -5 -77 -17 -110 -26 -33 -9 -94 -25 -135 -35
-41 -10 -124 -33 -183 -50 -60 -17 -128 -33 -153 -37 -24 -3 -41 -9 -39 -13 3
-4 -17 -12 -43 -18 -26 -6 -72 -18 -102 -26 -193 -54 -243 -68 -310 -90 -41
-13 -109 -34 -150 -46 -41 -12 -86 -26 -100 -30 -14 -4 -74 -23 -135 -40 -60
-18 -124 -39 -142 -46 -17 -8 -38 -14 -46 -14 -8 0 -28 -7 -43 -15 -16 -8 -37
-15 -47 -15 -10 0 -28 -5 -40 -12 -12 -6 -44 -17 -72 -24 -57 -14 -255 -80
-302 -100 -17 -8 -38 -14 -46 -14 -9 0 -18 -4 -21 -8 -3 -5 -31 -14 -63 -21
-32 -7 -62 -17 -68 -21 -5 -4 -32 -14 -60 -23 -27 -8 -70 -23 -95 -32 -25 -9
-53 -17 -62 -18 -9 -1 -15 -3 -13 -5 6 -6 -155 -65 -182 -66 -11 -1 -19 -4
-17 -7 2 -4 -8 -10 -24 -13 -27 -7 -110 -37 -169 -62 -17 -8 -37 -14 -45 -14
-7 0 -21 -7 -31 -15 -11 -7 -36 -17 -58 -20 -21 -4 -39 -10 -39 -14 0 -4 -21
-13 -47 -21 -57 -16 -51 -14 -86 -28 -16 -7 -31 -12 -33 -12 -3 0 -26 -9 -52
-21 -26 -11 -60 -26 -77 -34 -16 -7 -59 -23 -95 -36 -36 -12 -69 -26 -75 -29
-5 -4 -28 -13 -50 -20 -22 -6 -58 -21 -81 -31 -22 -10 -48 -19 -57 -19 -9 0
-17 -4 -17 -10 0 -5 -5 -10 -11 -10 -5 0 -30 -9 -55 -20 -24 -11 -58 -23 -74
-27 -17 -3 -30 -9 -30 -13 0 -5 -13 -11 -30 -15 -16 -3 -69 -24 -117 -46 -48
-21 -96 -39 -106 -39 -10 0 -16 -4 -13 -9 4 -5 -7 -12 -23 -16 -16 -3 -46 -15
-67 -26 -21 -10 -43 -19 -49 -19 -6 0 -28 -9 -50 -20 -22 -11 -47 -20 -57 -20
-10 0 -18 -4 -18 -9 0 -5 -16 -15 -36 -21 -20 -7 -48 -18 -62 -26 -15 -8 -33
-14 -39 -14 -7 0 -13 -4 -13 -9 0 -5 -15 -12 -32 -16 -18 -4 -64 -22 -103 -40
-38 -18 -90 -42 -115 -53 -143 -62 -228 -101 -337 -153 -67 -33 -124 -59 -127
-59 -3 0 -115 -54 -249 -120 -135 -66 -250 -120 -255 -120 -6 0 -12 -4 -14 -8
-1 -5 -52 -33 -113 -62 -129 -62 -677 -347 -770 -400 -22 -13 -94 -52 -160
-87 -66 -35 -127 -68 -135 -74 -8 -5 -23 -12 -32 -15 -10 -4 -18 -10 -18 -14
0 -4 -15 -14 -32 -21 -18 -7 -74 -37 -125 -66 -51 -29 -97 -53 -102 -53 -6 0
-11 -4 -11 -8 0 -4 -26 -21 -57 -37 -32 -17 -63 -36 -71 -42 -7 -7 -17 -13
-22 -13 -5 0 -30 -13 -56 -30 -26 -16 -52 -27 -58 -23 -6 3 -8 2 -4 -2 5 -5
-20 -25 -55 -45 -75 -44 -213 -125 -272 -160 -133 -79 -191 -115 -203 -127 -7
-7 -17 -13 -22 -13 -5 0 -29 -14 -54 -31 -26 -17 -51 -27 -58 -23 -7 4 -10 4
-6 -1 10 -11 -92 -76 -106 -68 -6 3 -8 3 -4 -2 7 -8 -36 -38 -136 -97 -67 -39
-128 -79 -136 -88 -5 -6 -89 -57 -148 -90 -15 -8 -31 -21 -35 -27 -4 -7 -15
-13 -22 -13 -8 0 -15 -4 -15 -8 0 -5 -15 -16 -32 -26 -61 -32 -183 -111 -206
-133 -7 -7 -17 -13 -22 -13 -5 0 -15 -6 -22 -13 -7 -7 -35 -26 -63 -42 -27
-16 -52 -32 -55 -35 -3 -3 -66 -46 -140 -96 -177 -118 -292 -198 -360 -249
-30 -23 -91 -66 -135 -96 -44 -29 -86 -60 -94 -67 -8 -7 -26 -21 -40 -30 -14
-9 -44 -30 -67 -47 -22 -16 -131 -97 -243 -180 -111 -82 -213 -159 -226 -170
-13 -11 -43 -34 -67 -52 -97 -72 -334 -255 -353 -272 -11 -9 -105 -84 -210
-166 -104 -81 -194 -153 -200 -159 -5 -7 -57 -50 -115 -96 -58 -46 -107 -87
-110 -90 -3 -3 -41 -35 -85 -70 -44 -36 -84 -69 -90 -75 -5 -6 -35 -31 -65
-56 -30 -24 -60 -48 -67 -54 -64 -56 -107 -93 -127 -110 -12 -11 -41 -36 -65
-55 -23 -19 -59 -51 -80 -70 -20 -19 -59 -53 -85 -75 -27 -22 -65 -56 -86 -75
-21 -19 -51 -46 -66 -58 -50 -41 -166 -144 -249 -221 -44 -41 -112 -104 -151
-140 -138 -128 -317 -297 -378 -355 -185 -179 -758 -752 -903 -904 -92 -97
-205 -215 -249 -262 -45 -47 -113 -119 -150 -159 -38 -41 -86 -92 -106 -113
-21 -21 -38 -41 -38 -43 0 -2 -22 -27 -50 -54 -27 -28 -50 -52 -50 -55 0 -3
-24 -30 -53 -60 -28 -29 -70 -75 -92 -101 -22 -27 -89 -102 -149 -169 -141
-157 -316 -364 -673 -796 -43 -52 -96 -118 -118 -146 -22 -28 -96 -122 -165
-209 -69 -86 -153 -194 -188 -238 -132 -170 -208 -270 -222 -291 -8 -12 -45
-60 -81 -107 -36 -46 -103 -136 -149 -199 -46 -63 -86 -117 -89 -120 -4 -3
-35 -45 -69 -94 -35 -48 -68 -93 -73 -100 -6 -6 -49 -67 -97 -135 -48 -68
-119 -169 -159 -225 -40 -55 -86 -123 -103 -151 -31 -51 -121 -181 -139 -202
-6 -7 -11 -15 -11 -18 0 -3 -20 -36 -45 -73 -25 -37 -50 -74 -56 -82 -5 -8
-39 -60 -74 -115 -35 -55 -68 -105 -72 -111 -10 -12 -18 -25 -82 -129 -28 -44
-54 -84 -58 -90 -17 -21 -57 -83 -91 -141 -12 -22 -47 -77 -77 -124 -29 -47
-71 -114 -92 -149 -21 -35 -45 -74 -53 -86 -8 -13 -48 -79 -88 -147 -41 -67
-95 -159 -122 -203 -99 -164 -166 -280 -199 -341 -19 -35 -39 -60 -44 -57 -6
3 -7 1 -3 -5 4 -6 -4 -28 -17 -49 -13 -21 -62 -105 -109 -188 -77 -135 -116
-206 -190 -345 -14 -25 -41 -74 -60 -110 -92 -170 -128 -238 -215 -405 -97
-188 -339 -673 -438 -880 -32 -66 -83 -174 -115 -240 -32 -66 -72 -154 -90
-195 -42 -95 -77 -174 -101 -226 -10 -22 -19 -46 -19 -52 0 -7 -4 -12 -9 -12
-5 0 -13 -15 -16 -32 -4 -18 -13 -44 -20 -58 -8 -14 -23 -47 -35 -75 -28 -64
-52 -118 -79 -176 -12 -25 -21 -50 -21 -55 -1 -5 -9 -27 -20 -49 -11 -22 -19
-46 -20 -52 0 -7 -4 -13 -10 -13 -5 0 -10 -7 -10 -15 0 -16 -26 -82 -100 -250
-5 -11 -14 -37 -20 -58 -7 -22 -18 -51 -26 -65 -8 -15 -14 -32 -14 -39 0 -6
-3 -13 -7 -15 -7 -3 -17 -27 -59 -143 -8 -22 -19 -49 -24 -60 -9 -19 -30 -75
-52 -142 -6 -18 -15 -33 -20 -33 -4 0 -8 -7 -8 -16 0 -8 -8 -36 -19 -62 -10
-26 -31 -81 -46 -122 -15 -41 -34 -89 -41 -107 -8 -17 -14 -37 -14 -45 0 -8
-7 -23 -15 -34 -8 -10 -15 -25 -15 -32 0 -8 -6 -28 -14 -45 -18 -45 -49 -128
-80 -222 -15 -44 -32 -88 -37 -97 -5 -10 -9 -23 -9 -29 0 -6 -6 -25 -14 -42
-16 -36 -73 -196 -117 -332 -16 -49 -33 -99 -38 -110 -21 -47 -111 -326 -132
-410 -6 -22 -14 -44 -20 -50 -5 -5 -9 -18 -9 -28 0 -10 -6 -33 -14 -50 -7 -18
-28 -81 -45 -142 -18 -60 -37 -118 -42 -127 -5 -10 -9 -25 -9 -33 0 -9 -8 -41
-19 -73 -57 -176 -171 -575 -171 -600 0 -7 -4 -12 -9 -12 -6 0 -10 -8 -9 -17
0 -18 -25 -118 -62 -243 -28 -97 -80 -298 -91 -355 -5 -27 -14 -59 -19 -70 -5
-11 -23 -78 -40 -150 -16 -71 -35 -146 -40 -165 -6 -19 -17 -66 -24 -105 -8
-38 -23 -108 -35 -155 -50 -198 -66 -267 -106 -465 -16 -77 -39 -185 -62 -285
-34 -152 -71 -350 -113 -600 -6 -36 -15 -74 -20 -85 -5 -11 -13 -54 -19 -95
-5 -41 -17 -113 -26 -160 -9 -47 -20 -114 -26 -150 -21 -131 -37 -238 -53
-345 -28 -188 -37 -247 -51 -335 -8 -47 -21 -141 -30 -210 -9 -69 -22 -172
-30 -230 -25 -181 -34 -261 -45 -385 -6 -66 -17 -167 -25 -225 -8 -58 -19
-177 -25 -264 -5 -88 -13 -162 -18 -165 -5 -3 -16 -125 -25 -271 -34 -521 -46
-716 -50 -805 -3 -49 -10 -160 -16 -245 -14 -205 -14 -2711 0 -2910 11 -151
13 -190 32 -560 7 -124 15 -229 18 -235 4 -5 12 -122 19 -260 7 -137 17 -256
22 -262 6 -7 14 -86 19 -175 5 -90 16 -208 24 -263 8 -55 19 -152 25 -215 16
-174 69 -589 114 -885 8 -49 21 -146 30 -215 10 -69 21 -138 26 -155 5 -16 11
-57 15 -90 6 -57 17 -124 51 -315 9 -47 22 -121 29 -165 8 -44 21 -116 30
-160 9 -44 24 -129 35 -190 19 -116 65 -342 81 -410 6 -22 11 -49 13 -60 1
-11 5 -27 9 -35 3 -8 10 -42 16 -75 6 -33 17 -89 25 -125 7 -36 21 -99 30
-140 20 -92 51 -229 78 -335 11 -44 26 -109 34 -145 8 -36 21 -92 29 -125 8
-33 26 -109 41 -170 14 -60 29 -117 34 -125 4 -9 11 -36 14 -60 4 -25 11 -54
16 -65 10 -22 35 -119 55 -210 7 -33 25 -100 40 -150 14 -49 31 -110 36 -135
5 -25 14 -52 18 -60 5 -9 12 -31 15 -50 4 -19 11 -44 16 -55 4 -11 13 -38 18
-60 29 -112 54 -204 67 -240 13 -39 52 -169 95 -315 45 -153 71 -235 80 -251
5 -9 12 -34 16 -55 3 -22 10 -43 14 -49 4 -5 19 -50 35 -100 53 -174 107 -340
121 -372 8 -17 14 -38 14 -46 0 -9 4 -18 9 -21 4 -3 11 -20 15 -38 6 -30 115
-345 137 -393 12 -29 39 -104 50 -145 6 -19 14 -44 19 -55 5 -11 21 -51 35
-90 15 -38 31 -80 37 -92 6 -11 7 -27 3 -34 -5 -7 -4 -10 3 -5 6 4 13 -7 17
-26 4 -18 11 -37 15 -43 4 -5 11 -21 15 -35 9 -32 52 -145 71 -187 8 -17 14
-37 14 -45 0 -8 4 -18 8 -23 5 -6 21 -44 36 -85 16 -41 32 -84 37 -95 31 -73
69 -178 69 -190 0 -8 5 -15 10 -15 6 0 10 -6 10 -12 0 -7 6 -25 14 -40 8 -14
19 -43 26 -63 7 -20 18 -49 26 -63 8 -15 14 -34 14 -42 0 -9 4 -20 9 -25 4 -6
17 -32 27 -60 10 -27 24 -61 31 -75 7 -14 13 -31 13 -37 0 -7 4 -13 9 -13 5 0
12 -12 15 -27 4 -16 13 -41 21 -58 7 -16 26 -59 41 -95 15 -36 42 -99 61 -140
60 -131 63 -138 63 -145 0 -7 25 -63 76 -172 19 -40 34 -74 34 -77 0 -5 40
-94 95 -211 18 -38 49 -106 70 -150 111 -238 444 -914 455 -925 3 -3 30 -54
61 -115 91 -179 191 -368 207 -394 8 -13 37 -67 65 -120 27 -53 73 -136 102
-186 28 -49 71 -126 95 -170 50 -93 187 -329 309 -534 47 -79 100 -167 116
-196 62 -106 88 -151 106 -176 36 -53 169 -279 169 -288 0 -5 3 -11 8 -13 10
-4 149 -218 207 -320 6 -9 22 -34 36 -55 14 -21 45 -67 68 -103 23 -36 46 -72
51 -80 54 -83 411 -617 462 -690 37 -52 98 -139 135 -193 37 -54 93 -131 123
-172 30 -40 62 -83 70 -95 8 -12 32 -45 53 -74 137 -184 188 -252 195 -261 4
-5 39 -53 77 -105 38 -52 75 -99 81 -105 7 -5 44 -53 83 -105 38 -52 109 -144
156 -205 47 -60 119 -153 160 -205 41 -52 130 -163 197 -246 68 -83 161 -197
207 -255 46 -57 89 -108 95 -114 6 -5 41 -46 76 -90 36 -44 72 -87 80 -96 8
-8 47 -53 85 -99 39 -46 122 -142 185 -214 63 -72 129 -146 145 -165 17 -19
46 -50 65 -70 19 -20 64 -69 100 -110 36 -41 81 -91 100 -111 19 -20 71 -76
115 -124 133 -146 187 -204 434 -462 314 -330 826 -834 1191 -1174 80 -74 160
-150 178 -167 19 -18 68 -63 110 -100 42 -38 85 -77 97 -88 11 -11 45 -40 75
-65 30 -24 72 -60 92 -80 20 -19 48 -44 62 -55 15 -11 51 -42 81 -70 30 -27
71 -63 91 -80 20 -16 46 -39 58 -50 26 -23 135 -115 154 -130 7 -5 31 -26 53
-45 21 -19 53 -46 70 -60 17 -14 39 -32 49 -40 9 -8 36 -31 59 -50 23 -19 52
-43 64 -54 12 -10 54 -43 92 -74 39 -30 77 -63 86 -71 20 -19 41 -36 94 -75
22 -17 42 -33 45 -36 3 -4 51 -43 107 -88 57 -44 108 -86 115 -92 33 -27 410
-319 519 -401 68 -51 131 -99 139 -106 16 -13 514 -378 550 -403 60 -42 228
-162 252 -180 20 -15 363 -245 482 -323 10 -6 24 -17 30 -23 7 -6 25 -19 41
-28 17 -9 39 -22 49 -29 11 -6 56 -35 100 -64 45 -29 89 -59 99 -68 9 -8 21
-15 26 -15 5 0 16 -6 23 -13 7 -7 36 -26 63 -42 28 -16 56 -34 63 -41 6 -7 21
-16 32 -19 11 -3 20 -11 20 -16 0 -5 4 -9 9 -9 8 0 62 -32 229 -137 37 -23
101 -63 142 -88 41 -25 122 -75 180 -110 58 -35 112 -68 120 -72 31 -15 79
-51 75 -55 -3 -3 1 -5 9 -5 16 0 180 -92 184 -105 2 -4 8 -8 14 -8 6 0 34 -14
62 -31 28 -18 80 -48 116 -67 36 -19 67 -39 68 -43 2 -5 8 -9 13 -9 5 0 67
-33 137 -73 70 -40 134 -76 142 -80 8 -4 31 -17 50 -28 19 -12 62 -36 95 -54
33 -18 87 -47 120 -65 151 -83 259 -140 266 -140 4 0 14 -6 21 -13 12 -11 235
-128 316 -166 17 -8 32 -19 32 -23 0 -4 5 -8 11 -8 6 0 61 -25 123 -56 61 -31
170 -85 241 -120 72 -36 138 -69 148 -75 44 -24 79 -41 402 -194 294 -139 528
-245 541 -245 4 0 35 -13 68 -29 115 -54 175 -81 183 -81 4 -1 26 -9 48 -20
22 -11 46 -19 53 -20 6 0 12 -4 12 -8 0 -5 23 -14 50 -21 28 -7 50 -16 50 -21
0 -4 16 -11 35 -14 19 -4 35 -11 35 -16 0 -6 6 -10 13 -10 6 0 35 -11 62 -25
28 -13 57 -25 65 -25 9 0 24 -6 35 -14 11 -7 35 -17 53 -21 19 -4 30 -11 26
-17 -4 -7 -2 -8 4 -4 6 4 40 -6 74 -22 35 -16 95 -41 133 -56 39 -15 78 -31
87 -36 10 -6 23 -10 30 -10 7 -1 31 -9 53 -20 22 -11 46 -19 53 -20 6 0 12 -5
12 -11 0 -5 4 -8 10 -4 5 3 17 2 27 -3 45 -23 111 -52 119 -52 5 0 21 -6 36
-14 15 -8 40 -17 57 -21 17 -4 29 -11 26 -16 -4 -5 1 -6 10 -3 8 4 21 2 28 -4
6 -5 27 -13 44 -17 18 -3 33 -10 33 -15 0 -4 17 -11 38 -15 20 -4 42 -10 47
-14 6 -4 53 -23 105 -41 52 -18 100 -36 105 -40 6 -4 33 -13 60 -20 28 -8 61
-20 75 -27 14 -7 33 -13 42 -13 9 0 18 -3 20 -7 2 -5 50 -24 108 -42 58 -19
112 -38 120 -42 8 -4 47 -17 85 -29 39 -12 84 -27 100 -34 17 -8 95 -34 175
-60 80 -26 154 -51 165 -56 11 -5 40 -14 65 -20 25 -6 54 -15 65 -20 27 -12
252 -84 345 -110 41 -12 82 -25 90 -29 9 -5 31 -12 50 -16 19 -4 40 -11 45
-15 6 -4 26 -11 45 -15 19 -3 58 -15 85 -24 28 -10 68 -22 90 -26 22 -4 45
-10 50 -14 6 -5 26 -11 45 -15 38 -7 163 -43 195 -56 11 -4 74 -22 140 -40 66
-17 131 -35 145 -40 14 -5 43 -12 65 -16 22 -4 45 -10 50 -14 6 -4 39 -13 75
-20 36 -6 70 -15 75 -20 6 -4 29 -10 53 -14 24 -3 51 -11 60 -16 9 -5 49 -16
87 -25 39 -9 106 -25 150 -36 44 -11 116 -28 160 -38 72 -17 139 -33 305 -76
30 -8 120 -28 200 -45 80 -17 159 -34 175 -39 17 -5 50 -13 75 -16 25 -4 50
-10 55 -14 6 -3 39 -11 75 -17 36 -6 121 -24 190 -39 69 -15 172 -36 230 -47
58 -10 139 -26 180 -34 41 -8 109 -21 150 -28 41 -8 138 -26 215 -41 173 -33
278 -50 420 -70 61 -8 128 -19 150 -25 22 -5 65 -12 95 -15 30 -4 69 -11 85
-15 25 -8 164 -27 525 -75 48 -6 230 -30 345 -45 39 -5 113 -14 165 -20 52 -5
131 -14 175 -20 44 -5 127 -14 185 -19 58 -6 152 -15 210 -21 58 -5 185 -15
283 -22 97 -6 177 -15 177 -20 0 -4 26 -8 58 -8 99 0 526 -22 542 -28 8 -3
132 -12 275 -20 143 -7 272 -15 288 -16 15 -2 42 -5 60 -6 l32 -3 -35 -7 c-19
-4 543 -7 1250 -7 707 0 1269 3 1250 7 l-35 7 33 3 c17 1 44 4 60 6 15 1 146
10 292 18 146 9 360 22 475 30 116 8 249 15 298 15 48 1 95 5 105 10 9 6 89
15 177 20 228 15 484 38 665 60 47 6 126 15 175 20 50 6 126 15 170 21 116 15
281 36 425 54 188 24 376 52 535 81 50 8 146 24 215 35 176 26 294 46 450 76
74 14 167 30 205 36 39 6 79 14 90 19 11 4 47 13 80 18 103 17 275 50 400 76
66 15 147 31 180 37 33 5 69 14 80 19 11 4 45 13 75 19 100 18 399 85 450 99
19 6 103 27 185 46 83 20 166 40 185 45 19 5 94 24 165 41 72 17 139 35 150
39 11 5 40 13 65 19 25 5 81 20 125 31 44 12 103 28 130 35 28 7 93 25 145 40
52 14 113 31 135 37 22 5 49 13 60 18 32 14 157 50 171 50 7 0 33 6 56 14 24
8 93 28 153 46 61 17 119 35 130 40 45 19 146 50 164 50 11 0 22 4 25 9 3 4
20 11 38 15 37 7 195 54 218 66 8 4 56 19 105 34 50 15 99 32 110 36 11 5 65
23 120 40 55 16 107 34 115 39 9 5 31 12 50 16 19 4 41 11 50 16 17 10 89 36
140 50 19 6 42 13 50 16 85 32 208 73 223 73 10 0 15 5 12 10 -3 6 2 10 12 10
10 0 29 6 43 13 14 7 48 19 75 27 28 8 61 20 75 27 14 7 30 13 36 13 12 0 130
45 156 60 9 5 35 13 57 16 23 4 38 10 36 14 -3 5 9 12 27 15 18 4 38 11 43 15
6 4 28 13 50 20 22 6 54 18 72 26 17 8 34 14 38 14 6 0 50 19 132 56 17 8 45
17 62 20 17 4 31 10 31 15 0 5 7 9 16 9 9 0 30 6 47 14 18 8 64 27 102 42 68
26 127 51 192 80 17 8 45 17 62 20 17 4 31 10 31 14 0 5 23 14 50 21 28 7 50
16 50 21 0 4 20 13 45 19 25 6 45 15 45 20 0 5 6 9 13 9 7 0 28 8 47 19 19 10
50 22 68 25 17 4 32 11 32 16 0 5 13 11 29 15 16 3 46 15 67 26 21 10 46 19
55 19 9 0 22 7 29 15 7 8 17 15 22 15 9 0 90 33 119 49 8 5 49 22 90 39 41 16
119 51 174 77 55 25 114 52 130 60 98 43 169 77 335 157 253 122 774 382 780
389 3 3 61 34 130 69 69 35 150 77 180 93 30 17 93 50 140 75 47 24 99 52 115
62 32 20 82 47 215 118 47 25 101 55 120 67 33 21 129 74 210 117 36 19 66 37
84 51 6 4 65 38 131 74 66 36 122 69 125 73 3 4 69 45 148 91 79 46 160 94
180 106 20 13 44 26 52 30 30 14 145 88 151 96 4 5 13 6 20 2 8 -5 11 -5 7 0
-7 7 105 80 307 201 44 27 86 54 93 61 7 7 17 13 22 13 5 0 15 6 22 12 20 19
48 36 93 58 22 11 36 20 30 20 -5 0 10 12 35 26 54 32 123 77 130 85 3 3 28
19 55 35 28 15 56 34 63 41 7 7 17 13 22 13 5 0 15 6 22 13 7 7 51 37 98 67
119 77 410 273 435 293 10 8 353 255 434 312 23 17 76 55 117 85 41 30 109 80
150 110 42 30 93 69 113 86 20 17 72 57 116 90 44 32 121 90 171 129 49 38
103 79 118 90 16 11 33 25 40 30 12 12 91 74 146 115 18 14 42 33 54 44 11 10
46 37 76 60 30 22 57 43 60 46 3 3 52 44 110 90 58 46 107 87 110 90 3 3 52
44 110 90 58 46 107 87 110 90 3 3 32 28 65 55 33 28 65 55 71 60 7 6 29 24
50 42 22 17 59 50 84 72 25 22 48 41 51 41 3 0 26 19 50 43 24 23 64 58 88 77
24 19 69 59 99 88 31 28 59 52 63 52 3 0 30 23 60 51 30 27 79 71 109 97 60
51 249 222 345 311 33 31 101 94 150 141 447 417 1167 1141 1546 1554 30 32
72 78 94 102 22 23 69 75 105 115 36 40 90 100 121 133 31 34 70 77 85 96 16
19 54 62 85 95 31 33 74 80 94 105 21 25 40 47 44 50 3 3 42 48 86 100 44 52
82 97 85 100 3 3 28 32 55 65 27 33 62 72 77 88 16 15 28 30 28 33 0 5 63 83
105 130 6 6 35 42 65 79 30 38 78 96 106 129 27 34 79 97 113 141 35 44 67 82
70 85 4 3 35 43 70 90 35 47 70 92 78 100 8 8 33 40 56 70 23 31 48 62 54 70
26 31 231 298 287 375 33 44 66 88 75 97 9 9 33 41 54 70 67 94 226 313 235
323 57 71 394 555 516 740 43 66 87 132 96 146 37 53 99 146 136 204 21 33 42
62 46 63 5 2 8 9 8 16 0 6 7 21 15 31 8 11 36 54 62 95 26 41 76 121 112 177
36 56 77 121 91 144 14 23 30 47 35 53 6 7 17 24 25 38 14 25 75 126 192 317
25 42 56 95 68 119 12 23 27 48 34 55 12 12 356 603 438 751 24 43 52 95 63
115 12 20 43 77 70 126 26 50 58 108 70 130 151 276 605 1169 703 1385 11 25
50 107 86 183 36 76 66 140 66 142 0 4 43 98 96 211 13 28 24 55 24 60 0 5 13
35 29 66 16 32 35 74 41 94 7 20 18 48 26 62 8 15 14 33 14 40 0 6 4 12 9 12
4 0 14 20 21 45 7 25 16 45 20 45 4 0 11 12 15 27 3 15 15 46 26 70 10 23 19
47 19 52 0 6 9 28 20 48 11 21 20 43 20 50 0 7 5 13 10 13 6 0 10 8 10 17 0 9
9 35 19 57 18 36 42 92 46 106 17 59 30 90 35 90 4 0 10 14 14 31 3 16 19 58
34 92 16 34 35 80 42 102 7 22 16 45 20 50 4 6 13 28 20 50 7 22 16 44 21 49
5 6 9 17 9 25 1 9 9 34 20 56 11 22 19 46 20 53 0 8 7 26 15 40 8 15 35 86 61
157 44 123 63 173 84 220 13 27 38 100 57 160 9 28 19 55 23 60 4 6 11 25 15
43 4 19 11 30 17 26 6 -4 8 -2 4 4 -7 12 24 122 36 122 4 0 8 8 8 18 0 15 77
244 100 297 5 11 13 36 19 55 5 19 32 100 59 180 27 80 66 199 87 265 20 66
43 136 51 155 16 41 71 221 91 300 7 30 18 63 23 72 6 10 10 25 10 34 0 9 6
30 14 47 8 18 19 50 25 72 5 22 22 81 36 130 15 50 40 142 56 205 17 63 34
124 38 135 14 33 41 127 51 176 5 26 14 59 20 75 6 16 17 56 25 89 7 33 23 96
35 140 12 44 26 100 31 125 5 25 13 54 18 65 8 19 78 301 116 475 9 41 21 84
25 95 5 11 13 45 19 75 5 30 21 105 36 165 14 61 35 155 46 210 27 132 44 215
64 300 9 39 22 104 30 145 8 41 19 100 25 130 22 103 41 205 55 305 8 55 20
108 25 117 6 10 10 29 10 43 0 23 8 72 47 270 8 44 24 139 35 210 11 72 26
171 33 220 8 50 21 135 29 190 8 55 19 129 25 165 5 36 15 101 20 145 6 44 22
161 35 260 22 158 32 241 50 425 3 25 9 83 15 130 5 47 17 159 25 250 9 91 18
188 22 215 31 252 91 1197 93 1462 1 79 5 144 11 148 5 3 7 19 3 35 -3 16 -2
46 2 67 6 32 9 35 15 18 5 -11 8 480 8 1090 0 611 -4 1097 -7 1080 -7 -27 -8
-24 -14 25 -7 66 -5 31 -17 395 -6 165 -14 314 -19 330 -5 17 -15 162 -22 323
-7 160 -16 292 -19 292 -4 0 -10 57 -14 128 -3 70 -11 165 -16 212 -6 47 -19
182 -30 300 -11 118 -24 244 -30 280 -5 36 -16 130 -24 210 -21 209 -78 622
-140 1025 -8 50 -22 140 -30 200 -9 61 -25 155 -35 210 -11 55 -27 145 -36
200 -9 55 -21 116 -26 135 -5 19 -16 76 -24 125 -8 50 -21 124 -28 165 -26
132 -48 244 -57 290 -5 25 -16 74 -23 110 -7 36 -16 72 -20 80 -3 8 -10 40
-15 70 -12 68 -43 217 -78 370 -14 63 -30 140 -35 170 -6 30 -14 64 -19 75 -5
11 -12 36 -15 55 -3 19 -10 46 -15 60 -4 14 -16 59 -25 100 -35 156 -77 326
-86 345 -5 11 -14 44 -19 73 -5 30 -12 57 -15 62 -3 4 -11 36 -19 71 -24 103
-74 292 -110 414 -8 28 -30 106 -50 175 -19 69 -46 166 -61 215 -14 50 -31
108 -36 130 -6 22 -15 49 -19 60 -5 11 -18 54 -30 95 -24 83 -33 113 -115 375
-31 99 -60 189 -64 200 -30 76 -225 673 -225 687 0 9 -3 15 -7 12 -4 -2 -11
10 -14 28 -4 18 -11 35 -14 38 -4 3 -20 43 -35 90 -15 47 -30 92 -33 100 -38
100 -56 153 -66 193 -7 26 -15 45 -19 42 -3 -4 -9 9 -13 27 -4 18 -11 38 -15
43 -6 8 -29 70 -35 95 -1 3 -7 18 -13 33 -7 16 -12 33 -12 38 0 5 -4 17 -10
27 -20 36 -70 174 -70 193 0 11 -4 18 -9 15 -5 -4 -13 8 -16 26 -4 18 -11 38
-15 43 -4 6 -13 28 -19 50 -7 22 -16 49 -21 60 -5 11 -21 49 -36 85 -43 104
-65 154 -75 172 -5 10 -9 23 -9 30 -1 7 -9 31 -20 53 -11 22 -19 44 -20 48 0
5 -11 33 -25 63 -14 30 -25 58 -25 63 0 4 -11 28 -23 52 -13 24 -30 62 -37 84
-7 22 -16 45 -20 50 -4 6 -13 27 -19 47 -7 20 -25 64 -41 97 -16 33 -32 71
-36 86 -3 14 -10 25 -14 25 -4 0 -11 12 -15 28 -7 28 -10 37 -69 165 -20 42
-36 80 -36 83 0 2 -16 39 -36 82 -19 42 -39 86 -44 97 -5 11 -36 78 -69 149
-34 71 -61 131 -61 134 0 6 -127 265 -285 582 -100 201 -185 365 -310 605 -35
66 -79 149 -97 185 -88 167 -143 267 -160 292 -10 14 -18 30 -18 34 0 4 -17
37 -39 73 -85 146 -196 340 -229 401 -19 36 -43 76 -53 89 -11 13 -19 29 -19
37 0 7 -4 14 -9 16 -4 2 -24 33 -44 70 -50 92 -61 112 -67 118 -3 3 -31 48
-61 100 -31 52 -87 145 -124 205 -38 61 -86 139 -107 175 -53 89 -62 102 -71
114 -4 6 -37 58 -72 116 -67 109 -75 121 -112 173 -13 17 -23 35 -23 39 0 5
-5 14 -11 21 -5 7 -38 55 -71 107 -34 52 -79 121 -100 153 -21 32 -38 62 -38
67 0 5 -3 10 -7 12 -12 5 -103 143 -103 155 0 6 -3 13 -7 15 -10 4 -38 44
-127 178 -64 97 -178 261 -302 435 -28 39 -68 95 -89 125 -21 30 -41 57 -45
60 -3 3 -31 41 -61 85 -29 44 -59 85 -65 90 -6 6 -69 89 -139 185 -112 153
-147 200 -183 245 -5 6 -44 57 -88 114 -140 183 -198 257 -235 302 -19 24
-116 145 -214 269 -99 124 -182 227 -185 230 -3 3 -44 52 -91 109 -46 58 -95
116 -108 130 -13 14 -40 46 -60 71 -66 82 -264 313 -381 445 -64 72 -129 145
-145 164 -17 19 -48 54 -70 76 -22 23 -51 55 -65 71 -38 45 -282 310 -385 418
-416 437 -765 791 -1091 1106 -179 174 -392 375 -483 456 -30 27 -71 65 -91
84 -20 19 -72 66 -116 105 -43 38 -84 74 -90 80 -6 5 -32 28 -59 50 -26 22
-63 54 -82 72 -19 18 -55 49 -80 70 -24 21 -61 54 -82 73 -21 19 -57 51 -81
70 -56 47 -120 102 -139 120 -9 8 -52 44 -96 80 -44 35 -93 76 -110 91 -41 37
-141 120 -244 203 -47 38 -88 72 -91 76 -3 3 -104 84 -225 180 -121 96 -222
177 -225 180 -3 3 -43 34 -90 70 -47 35 -87 66 -90 70 -3 3 -43 34 -90 69 -47
35 -92 70 -100 78 -15 13 -391 292 -520 386 -36 25 -73 52 -82 59 -9 7 -26 20
-38 28 -12 8 -39 28 -59 44 -20 15 -61 44 -91 64 -30 20 -57 39 -60 42 -3 3
-18 14 -35 26 -16 11 -55 38 -85 59 -64 45 -252 174 -325 222 -27 18 -55 37
-61 42 -5 4 -21 14 -34 21 -14 7 -31 19 -38 27 -7 7 -19 13 -27 13 -7 0 -15 3
-17 8 -1 4 -50 38 -108 77 -58 38 -107 72 -110 75 -3 3 -16 11 -30 18 -14 6
-65 39 -115 72 -49 33 -112 73 -140 90 -206 127 -284 178 -280 184 3 3 2 4 -1
2 -3 -2 -48 21 -99 52 -52 32 -194 118 -317 192 -265 160 -244 148 -313 184
-30 16 -55 33 -55 37 0 4 -10 11 -22 15 -13 3 -29 12 -37 18 -19 16 -141 84
-173 97 -16 6 -28 15 -28 20 0 5 -5 9 -10 9 -6 0 -68 33 -138 73 -70 40 -134
76 -142 80 -8 4 -33 18 -55 30 -22 13 -85 47 -140 76 -55 29 -104 57 -110 61
-20 15 -396 212 -625 327 -74 37 -136 71 -138 76 -2 4 -8 7 -13 7 -11 0 -120
51 -129 60 -3 3 -25 15 -50 27 -176 85 -435 210 -485 233 -33 15 -103 48 -155
73 -52 24 -149 68 -215 97 -66 28 -152 67 -191 86 -39 19 -75 34 -78 34 -6 0
-33 11 -133 56 -18 8 -48 20 -65 28 -18 8 -59 26 -90 40 -31 14 -60 26 -65 26
-4 1 -26 9 -48 20 -22 11 -46 19 -52 20 -7 0 -13 5 -13 10 0 6 -7 10 -16 10
-9 0 -35 9 -58 19 -23 10 -70 31 -106 46 -36 15 -79 33 -97 41 -17 8 -37 14
-45 14 -7 0 -22 6 -33 14 -11 7 -35 17 -52 21 -18 3 -33 10 -33 15 0 4 -12 11
-27 15 -15 3 -46 15 -70 26 -23 10 -45 19 -49 19 -9 0 -133 48 -154 59 -9 5
-30 12 -48 16 -18 3 -32 11 -32 16 0 5 -8 9 -17 9 -10 0 -29 6 -43 13 -14 7
-68 28 -120 47 -52 18 -99 36 -105 40 -5 4 -31 13 -58 20 -26 7 -50 17 -53 21
-3 5 -12 9 -21 9 -8 0 -29 6 -46 14 -72 30 -164 64 -194 71 -18 3 -35 11 -38
16 -4 5 -14 9 -23 9 -9 0 -29 6 -44 14 -15 8 -42 17 -60 21 -18 4 -35 10 -38
14 -3 3 -52 22 -110 41 -58 18 -112 37 -120 41 -8 4 -55 20 -105 35 -49 15
-92 30 -95 34 -3 4 -20 10 -39 13 -19 4 -77 22 -130 41 -53 18 -136 46 -186
60 -49 15 -98 31 -107 37 -10 5 -25 9 -34 9 -9 0 -30 6 -47 14 -18 8 -81 28
-142 46 -60 17 -117 34 -125 37 -8 4 -42 14 -75 23 -33 10 -130 38 -215 64
-85 26 -177 54 -205 61 -27 8 -81 23 -119 34 -38 12 -78 21 -88 21 -10 0 -18
4 -18 8 0 5 -24 13 -52 19 -29 6 -96 23 -148 38 -52 15 -129 35 -170 45 -151
37 -165 41 -185 49 -11 5 -42 13 -70 19 -64 13 -331 79 -370 91 -16 6 -59 15
-95 21 -36 6 -72 14 -80 17 -39 17 -503 122 -685 155 -33 6 -62 14 -65 17 -3
3 -14 7 -25 8 -11 0 -42 6 -70 12 -275 56 -446 89 -595 112 -36 6 -74 14 -85
19 -11 5 -54 13 -95 19 -41 5 -113 17 -160 26 -133 25 -233 41 -525 85 -77 11
-185 27 -240 36 -106 16 -134 20 -420 58 -223 30 -329 43 -470 56 -60 6 -159
17 -220 25 -60 9 -178 19 -262 24 -83 5 -158 13 -165 17 -14 10 -566 49 -1083
77 -55 3 -165 10 -245 16 -162 11 -2729 12 -2900 0z m2680 -10639 c338 -5 719
-14 845 -20 206 -9 996 -27 1605 -36 264 -3 708 -23 730 -32 8 -3 65 -11 125
-18 61 -7 157 -22 215 -34 58 -11 146 -28 195 -37 50 -9 92 -19 95 -23 3 -3
39 -12 80 -19 41 -7 80 -17 85 -21 6 -4 29 -11 53 -15 23 -4 42 -11 42 -16 0
-5 8 -9 18 -9 19 0 240 -78 299 -105 17 -8 34 -15 38 -15 4 0 21 -6 38 -14 89
-40 125 -55 150 -61 15 -4 27 -11 27 -16 0 -5 6 -9 12 -9 17 0 202 -92 206
-102 2 -4 8 -8 13 -8 39 0 484 -287 669 -431 41 -32 80 -62 85 -66 164 -125
558 -498 709 -673 36 -41 78 -89 93 -106 15 -17 53 -59 83 -94 30 -34 60 -68
65 -74 6 -6 22 -27 36 -46 15 -19 36 -46 48 -60 11 -14 24 -30 28 -35 5 -6 22
-26 38 -46 17 -20 37 -46 45 -58 8 -13 25 -35 38 -49 13 -15 31 -38 40 -52 9
-14 53 -74 97 -135 44 -60 137 -195 206 -300 177 -267 196 -299 210 -328 7
-15 16 -27 21 -27 4 0 8 -4 8 -9 0 -5 20 -42 45 -82 25 -40 45 -79 45 -85 0
-7 4 -14 9 -16 11 -4 147 -241 143 -250 -1 -5 2 -8 7 -8 5 0 14 -12 20 -27 6
-16 21 -46 34 -68 61 -106 95 -174 90 -179 -4 -3 -1 -6 5 -6 7 0 12 -6 12 -14
0 -8 6 -21 13 -28 24 -25 267 -520 261 -530 -4 -6 -2 -8 4 -4 6 3 14 -3 18
-16 3 -12 31 -74 61 -137 63 -135 99 -214 141 -311 11 -25 34 -75 51 -113 17
-37 31 -70 31 -73 0 -3 12 -31 26 -62 14 -31 29 -66 34 -77 5 -11 20 -46 34
-78 14 -32 26 -64 26 -72 0 -8 4 -15 9 -15 5 0 14 -22 21 -50 7 -27 16 -50 20
-50 5 0 11 -13 15 -29 3 -16 15 -46 26 -67 10 -21 19 -46 19 -56 0 -10 4 -18
9 -18 5 0 15 -25 22 -55 7 -30 16 -55 21 -55 4 0 8 -5 8 -11 0 -5 9 -30 20
-55 11 -24 23 -58 27 -74 3 -17 9 -30 13 -30 4 0 13 -21 20 -47 6 -26 15 -52
19 -58 4 -5 16 -35 25 -65 9 -30 21 -64 25 -75 17 -39 111 -298 177 -485 46
-134 74 -211 84 -230 4 -8 13 -39 20 -67 8 -29 17 -53 21 -53 3 0 9 -15 13
-32 6 -31 32 -103 62 -175 8 -17 14 -36 14 -43 0 -7 6 -26 14 -43 8 -18 30
-77 49 -132 19 -55 53 -149 75 -210 22 -60 65 -182 97 -270 31 -88 63 -173 70
-190 8 -16 17 -43 21 -59 4 -16 13 -41 20 -55 8 -14 14 -33 14 -41 0 -8 7 -28
15 -44 8 -15 15 -33 15 -40 0 -6 6 -22 13 -36 7 -14 19 -46 26 -73 8 -26 18
-50 22 -53 5 -3 9 -11 9 -19 0 -8 5 -26 12 -42 14 -35 12 -29 28 -85 8 -27 18
-48 22 -48 4 0 8 -6 8 -14 0 -13 79 -239 101 -291 24 -56 99 -268 99 -280 0
-8 4 -15 8 -15 5 0 14 -24 22 -52 7 -29 16 -55 19 -58 3 -3 19 -43 35 -90 15
-47 34 -98 41 -115 8 -16 17 -43 21 -59 4 -16 13 -41 20 -55 8 -14 14 -33 14
-41 0 -8 9 -33 20 -55 11 -22 19 -48 20 -57 0 -9 4 -19 9 -22 5 -3 12 -18 15
-33 9 -35 153 -447 172 -490 8 -17 14 -38 14 -46 0 -9 4 -18 9 -21 4 -3 14
-27 22 -53 7 -27 19 -59 26 -73 7 -14 13 -32 13 -40 0 -8 7 -28 15 -43 8 -15
19 -42 24 -60 15 -49 40 -119 56 -152 7 -16 16 -47 20 -67 4 -21 11 -38 15
-38 4 0 13 -25 20 -55 7 -30 16 -55 20 -55 4 0 11 -17 15 -37 4 -21 10 -42 15
-48 4 -5 13 -28 20 -50 6 -22 18 -54 26 -72 8 -17 14 -38 14 -46 0 -9 4 -18 9
-21 4 -3 14 -27 22 -53 7 -27 19 -59 26 -73 7 -14 13 -32 13 -40 0 -8 9 -33
20 -55 11 -22 19 -48 20 -57 0 -9 4 -19 10 -23 5 -3 7 -12 3 -20 -3 -8 0 -15
5 -15 6 0 14 -16 18 -35 3 -19 10 -37 14 -40 5 -3 14 -30 21 -60 7 -30 16 -55
20 -55 4 0 13 -25 20 -55 7 -30 15 -55 19 -55 4 0 11 -15 14 -32 3 -18 13 -46
21 -61 8 -15 17 -45 21 -65 4 -20 10 -42 14 -47 5 -6 20 -46 35 -90 15 -44 33
-93 40 -110 7 -16 16 -45 20 -62 3 -18 11 -35 16 -38 5 -4 9 -13 9 -21 0 -8 9
-34 19 -57 11 -23 22 -59 26 -79 4 -21 11 -38 15 -38 4 0 14 -24 20 -52 7 -29
16 -55 19 -58 7 -6 41 -97 45 -120 3 -16 11 -40 28 -80 6 -14 12 -29 14 -35 6
-24 45 -138 78 -227 l36 -98 -1084 0 c-1079 0 -1084 0 -1089 20 -3 11 -6 24
-7 28 -1 4 -5 12 -10 17 -4 6 -11 27 -15 48 -4 20 -11 37 -15 37 -5 0 -14 25
-21 55 -7 30 -15 55 -19 55 -4 0 -13 25 -20 55 -7 30 -16 55 -20 55 -4 0 -11
17 -15 38 -4 20 -10 42 -15 47 -4 6 -13 28 -20 50 -6 22 -18 54 -26 72 -8 17
-14 36 -14 43 0 7 -6 26 -14 43 -8 18 -28 73 -45 122 -17 50 -39 114 -50 143
-11 29 -20 56 -21 60 -2 4 -6 17 -11 30 -5 13 -9 29 -9 37 0 8 -4 16 -9 20 -5
3 -15 30 -22 60 -7 30 -16 55 -20 55 -4 0 -11 15 -14 33 -4 17 -11 37 -14 42
-4 6 -13 30 -20 55 -7 25 -16 50 -20 55 -5 6 -14 33 -21 60 -8 28 -16 52 -19
55 -3 3 -21 52 -40 110 -43 130 -108 310 -119 330 -5 8 -15 39 -22 68 -8 28
-17 52 -20 52 -3 0 -12 24 -20 53 -7 28 -17 59 -21 67 -15 27 -37 84 -49 125
-7 22 -16 44 -21 50 -5 5 -9 15 -9 21 0 7 -5 25 -12 41 -6 15 -12 33 -13 38 0
6 -6 23 -13 38 -7 16 -12 35 -12 43 0 8 -4 14 -8 14 -5 0 -14 23 -21 51 -8 28
-20 63 -27 78 -8 14 -14 33 -14 41 0 8 -9 33 -20 55 -11 22 -19 45 -20 51 0 7
-7 25 -15 40 -8 16 -15 36 -15 44 0 8 -9 33 -20 55 -11 22 -19 45 -20 52 0 6
-5 24 -11 40 -7 15 -29 75 -49 133 -21 58 -59 164 -84 235 -26 72 -70 193 -97
270 -27 77 -53 149 -58 160 -5 11 -14 36 -21 55 -7 19 -19 49 -26 67 -8 17
-14 35 -14 39 0 9 -31 91 -56 151 -8 17 -14 37 -14 45 -1 7 -9 31 -20 53 -11
22 -19 45 -20 51 0 7 -7 25 -15 40 -8 16 -15 36 -15 44 0 8 -6 27 -14 41 -7
15 -19 50 -27 78 -7 28 -16 51 -20 51 -4 0 -10 16 -14 36 -3 20 -10 44 -15 53
-5 9 -23 59 -41 111 -17 52 -37 109 -45 127 -8 17 -14 34 -14 39 0 4 -37 107
-81 228 -45 122 -88 239 -96 261 -8 22 -20 54 -28 72 -8 17 -15 38 -15 46 0 9
-4 18 -9 21 -5 4 -15 29 -22 56 -7 28 -16 50 -20 50 -4 0 -11 15 -14 33 -4 17
-16 51 -26 74 -11 23 -19 46 -19 52 0 5 -7 22 -15 38 -23 45 -55 121 -55 133
0 11 -32 89 -49 120 -5 9 -27 63 -51 120 -70 177 -162 387 -239 551 -17 36
-31 73 -31 82 0 10 -4 17 -8 17 -5 0 -16 19 -27 43 -10 23 -31 70 -47 105 -15
34 -28 67 -28 72 0 6 -4 10 -10 10 -5 0 -10 6 -10 13 0 6 -31 75 -70 151 -38
76 -67 143 -63 149 3 6 1 7 -4 4 -6 -4 -14 5 -18 20 -3 16 -10 30 -14 33 -4 3
-20 32 -36 65 -17 33 -33 62 -36 65 -3 3 -12 22 -18 43 -7 20 -16 37 -20 37
-4 0 -13 17 -20 37 -8 21 -20 43 -27 51 -8 7 -14 20 -14 28 0 8 -4 14 -8 14
-5 0 -15 18 -22 40 -7 22 -17 40 -22 40 -4 0 -8 5 -8 11 0 6 -10 25 -22 42
-13 18 -22 32 -21 32 1 0 0 10 -3 23 -4 12 -9 22 -13 22 -4 0 -15 20 -26 45
-11 25 -23 45 -27 45 -3 0 -11 12 -17 28 -6 15 -22 45 -36 67 -13 22 -27 47
-31 55 -4 8 -10 17 -13 20 -3 3 -15 23 -26 45 -11 22 -33 60 -50 85 -17 25
-36 56 -43 70 -32 63 -280 439 -401 608 -151 212 -437 572 -557 702 -23 25
-61 68 -85 96 -94 110 -523 526 -607 589 -7 6 -21 17 -30 25 -22 19 -162 129
-197 154 -14 11 -35 27 -45 35 -10 9 -28 23 -40 31 -12 8 -41 29 -64 45 -22
17 -75 53 -116 80 -41 28 -77 52 -80 55 -25 28 -492 279 -517 280 -7 0 -13 5
-13 10 0 6 -5 10 -12 10 -6 0 -30 9 -52 19 -67 31 -127 57 -201 85 -38 15 -77
30 -85 35 -8 4 -55 20 -105 35 -49 15 -97 31 -106 35 -8 5 -42 14 -74 21 -32
7 -66 16 -74 20 -16 8 -111 33 -191 50 -25 5 -76 16 -115 25 -86 19 -283 45
-345 45 -26 0 -50 4 -55 9 -15 13 -270 31 -450 31 -88 0 -207 4 -265 9 -58 6
-377 13 -709 17 -332 3 -598 10 -591 14 6 4 -193 9 -443 12 -527 6 -1391 -2
-1362 -12 11 -4 -252 -10 -585 -14 -333 -4 -652 -11 -710 -17 -58 -5 -175 -9
-260 -9 -179 0 -460 -19 -460 -32 0 -4 -21 -8 -47 -8 -47 0 -259 -24 -298 -34
-11 -3 -65 -15 -120 -27 -143 -31 -350 -85 -380 -99 -11 -5 -36 -12 -55 -16
-19 -3 -39 -9 -44 -12 -5 -3 -50 -20 -100 -37 -84 -29 -124 -45 -201 -80 -16
-8 -57 -26 -90 -40 -105 -47 -350 -170 -363 -182 -7 -7 -19 -13 -25 -13 -7 0
-40 -18 -75 -40 -34 -22 -65 -40 -68 -40 -3 0 -10 -4 -17 -10 -18 -15 -149
-100 -154 -100 -2 0 -9 -5 -16 -10 -7 -6 -43 -34 -82 -61 -146 -106 -358 -273
-455 -359 -41 -37 -95 -85 -119 -106 -83 -73 -353 -349 -455 -464 -55 -63
-109 -124 -119 -135 -10 -11 -44 -51 -75 -90 -31 -38 -60 -72 -63 -75 -9 -8
-219 -281 -279 -364 -30 -42 -71 -97 -90 -124 -40 -55 -295 -434 -301 -448 -2
-5 -24 -42 -49 -82 -25 -40 -49 -81 -55 -90 -5 -9 -26 -44 -46 -77 -42 -68
-76 -127 -96 -167 -8 -15 -18 -30 -24 -33 -5 -4 -9 -15 -9 -26 0 -10 -4 -19
-9 -19 -5 0 -13 -10 -17 -22 -4 -13 -18 -37 -31 -55 -14 -17 -24 -34 -24 -37
1 -12 -33 -76 -41 -76 -4 0 -8 -6 -8 -12 -1 -7 -16 -42 -35 -78 -19 -36 -39
-77 -46 -92 -6 -16 -14 -28 -18 -28 -4 0 -14 -18 -21 -40 -7 -22 -17 -40 -22
-40 -4 0 -8 -6 -8 -14 0 -8 -7 -22 -16 -30 -8 -9 -12 -20 -9 -26 3 -5 2 -10
-4 -10 -5 0 -12 -13 -16 -30 -4 -16 -10 -30 -15 -30 -5 0 -14 -17 -21 -37 -6
-21 -15 -40 -18 -43 -10 -8 -61 -114 -61 -128 0 -6 -4 -12 -8 -12 -5 0 -15
-18 -22 -40 -7 -22 -17 -40 -21 -40 -4 0 -10 -14 -14 -30 -4 -17 -11 -27 -16
-24 -6 3 -9 0 -8 -7 2 -18 -23 -79 -33 -79 -4 0 -8 -9 -8 -19 0 -11 -6 -26
-12 -33 -7 -7 -14 -20 -16 -28 -3 -14 -17 -45 -82 -185 -16 -33 -65 -145 -110
-250 -79 -183 -98 -227 -134 -307 -9 -20 -16 -41 -16 -48 0 -7 -7 -24 -15 -38
-19 -35 -55 -119 -55 -129 -1 -4 -9 -26 -20 -48 -11 -22 -19 -47 -20 -55 0 -9
-4 -20 -9 -25 -10 -11 -61 -136 -61 -151 -1 -5 -9 -27 -20 -49 -11 -22 -20
-47 -20 -55 0 -8 -9 -33 -20 -55 -11 -22 -19 -48 -20 -57 0 -9 -4 -19 -9 -22
-5 -3 -12 -18 -16 -33 -3 -15 -14 -45 -24 -68 -10 -22 -37 -94 -61 -160 -23
-66 -48 -133 -55 -150 -7 -16 -16 -45 -20 -62 -3 -18 -11 -35 -16 -38 -5 -4
-9 -13 -9 -22 0 -8 -6 -29 -14 -46 -8 -18 -20 -50 -26 -72 -7 -22 -16 -44 -20
-50 -4 -5 -13 -34 -20 -63 -6 -28 -16 -54 -20 -57 -5 -3 -11 -23 -15 -45 -4
-22 -10 -40 -15 -40 -4 0 -11 -17 -15 -37 -4 -21 -15 -56 -25 -78 -10 -22 -21
-55 -25 -72 -3 -18 -11 -35 -16 -38 -5 -4 -9 -14 -9 -23 0 -9 -6 -28 -13 -42
-7 -14 -19 -46 -26 -73 -8 -26 -18 -50 -22 -53 -5 -3 -9 -11 -9 -19 0 -8 -5
-26 -12 -42 -6 -15 -12 -30 -13 -33 -6 -24 -29 -87 -35 -95 -4 -5 -10 -23 -14
-40 -4 -16 -13 -43 -21 -60 -13 -30 -178 -487 -217 -600 -11 -33 -26 -73 -33
-90 -8 -16 -17 -43 -21 -59 -4 -16 -13 -41 -20 -55 -8 -14 -14 -33 -14 -41 0
-8 -9 -33 -20 -55 -11 -22 -20 -47 -20 -55 0 -8 -7 -28 -15 -44 -8 -15 -15
-33 -15 -40 0 -6 -6 -23 -14 -37 -7 -15 -19 -50 -27 -78 -7 -28 -16 -51 -19
-51 -4 0 -13 -25 -20 -55 -7 -30 -17 -55 -21 -55 -4 0 -10 -18 -14 -40 -4 -22
-10 -40 -14 -40 -4 0 -13 -23 -20 -51 -8 -28 -20 -63 -27 -78 -8 -14 -17 -41
-20 -58 -3 -18 -10 -33 -15 -33 -5 0 -9 -9 -9 -21 0 -11 -9 -39 -19 -62 -11
-24 -23 -56 -27 -72 -4 -17 -10 -34 -14 -40 -3 -5 -12 -30 -20 -55 -7 -25 -17
-49 -22 -54 -4 -6 -8 -17 -8 -25 0 -9 -6 -28 -14 -43 -8 -14 -19 -43 -26 -65
-6 -21 -15 -47 -20 -58 -5 -11 -25 -69 -46 -130 -20 -60 -43 -124 -50 -142 -8
-17 -14 -37 -14 -45 -1 -7 -9 -31 -20 -53 -11 -22 -19 -48 -20 -57 0 -10 -5
-18 -11 -18 -6 0 -9 -7 -6 -15 4 -8 2 -17 -2 -20 -5 -2 -12 -21 -15 -40 -4
-19 -11 -35 -15 -35 -5 0 -11 -15 -14 -32 -3 -18 -11 -46 -18 -63 -18 -46 -79
-216 -90 -255 -6 -19 -16 -48 -24 -65 -7 -16 -17 -43 -21 -59 -4 -16 -13 -41
-20 -55 -8 -14 -14 -33 -14 -41 0 -8 -6 -27 -14 -42 -8 -15 -17 -42 -21 -60
-4 -18 -16 -52 -26 -75 -11 -23 -19 -49 -19 -57 0 -9 -4 -16 -9 -16 -5 0 -12
-17 -16 -37 -4 -21 -15 -56 -25 -78 -10 -22 -21 -55 -25 -72 -3 -18 -11 -35
-16 -38 -5 -4 -9 -12 -9 -20 0 -8 -5 -26 -11 -42 -6 -15 -9 -28 -7 -29 2 0 -2
-7 -8 -15 -7 -8 -15 -29 -19 -46 l-7 -33 -1090 0 -1090 0 14 23 c8 12 18 36
22 52 4 17 13 44 21 60 7 17 25 66 40 110 15 44 31 89 36 100 6 11 11 30 12
43 0 12 5 22 9 22 4 0 8 9 8 19 0 11 5 23 11 26 6 4 8 13 5 21 -3 8 -1 14 5
14 6 0 9 7 5 15 -3 8 -1 15 3 15 5 0 12 18 16 40 4 22 10 40 14 40 4 0 14 25
21 55 7 30 16 55 20 55 4 0 13 25 20 55 7 30 17 55 21 55 4 0 10 18 14 40 4
22 10 38 15 35 4 -2 11 14 14 37 4 23 13 56 20 72 8 17 26 66 40 109 14 42 30
85 35 95 11 23 40 107 53 157 6 22 14 42 18 45 4 3 13 29 20 58 6 28 16 52 20
52 4 0 11 17 15 38 4 20 15 56 26 79 10 23 19 49 19 57 0 9 5 16 11 16 6 0 9
7 6 15 -4 8 -2 17 3 20 6 4 10 14 10 23 1 9 9 35 20 57 11 22 20 47 20 55 0 8
9 33 20 55 11 22 20 47 20 55 0 8 7 28 15 44 8 15 15 33 15 40 1 6 9 29 20 51
11 22 20 47 20 55 0 8 7 28 15 44 8 15 15 33 15 38 0 5 9 28 19 51 11 23 22
59 26 80 4 20 11 37 15 37 4 0 11 15 14 33 3 17 12 44 20 59 8 15 17 41 21 58
4 17 13 43 21 58 8 15 17 42 20 60 3 17 10 32 14 32 4 0 13 25 20 55 7 31 17
58 22 61 4 3 8 13 8 22 1 9 9 35 20 57 11 22 19 45 20 52 0 6 5 24 11 40 14
34 69 187 111 308 17 50 34 95 38 100 4 6 11 26 15 45 4 19 16 54 26 77 11 23
19 49 19 57 0 8 5 18 10 21 6 4 8 10 5 15 -3 5 -1 11 5 15 5 3 10 14 10 23 1
9 9 35 20 57 11 22 19 46 20 53 0 8 6 28 14 45 8 18 20 50 26 72 7 22 16 45
20 50 5 6 11 27 15 48 4 20 11 37 15 37 4 0 11 15 14 33 3 17 12 44 20 58 7
14 16 39 20 55 4 16 13 43 20 59 28 64 56 141 56 150 0 6 6 21 13 35 7 14 19
46 26 73 8 26 18 50 22 53 5 3 9 13 9 22 0 9 6 29 14 43 7 14 16 39 20 55 4
16 13 43 20 59 19 44 50 129 81 220 15 44 33 94 40 110 7 17 32 84 55 150 23
66 46 129 50 140 17 45 51 138 100 275 28 80 60 168 70 195 51 138 90 249 90
259 1 6 9 29 20 51 11 22 20 47 20 55 0 8 7 28 15 44 8 15 15 33 15 40 1 6 9
29 20 51 11 22 20 47 20 55 0 8 6 26 13 40 7 14 19 48 27 75 7 28 16 55 21 60
4 6 11 26 17 45 6 19 29 87 52 150 23 63 45 126 50 140 5 14 20 54 33 90 90
241 149 407 150 418 0 6 3 12 7 12 4 0 13 25 20 55 7 30 17 55 21 55 4 0 10
15 14 33 4 17 13 41 20 52 7 11 16 35 19 53 4 17 11 32 16 32 4 0 10 13 13 30
4 16 15 49 25 72 11 24 30 70 43 103 13 33 27 62 30 65 3 3 9 18 13 35 4 16
19 54 33 85 47 102 53 118 53 129 0 6 5 11 10 11 6 0 9 3 8 8 -3 14 25 92 34
92 4 0 8 8 8 18 0 10 6 26 14 37 7 11 17 31 21 45 4 14 21 54 37 90 16 36 38
84 49 108 10 23 28 61 38 85 52 116 88 191 132 283 27 55 49 106 49 112 0 5 3
12 8 14 4 2 38 64 76 138 37 74 104 203 147 285 43 83 83 159 89 170 13 25 76
137 106 190 13 22 32 56 41 75 10 19 21 37 24 40 3 3 17 25 31 50 71 125 142
246 149 250 4 3 12 14 16 25 11 26 154 250 233 365 6 8 18 27 28 42 48 74 298
418 334 458 7 8 36 44 63 80 28 36 55 70 60 76 6 6 26 30 45 53 19 24 50 59
67 79 18 20 68 78 110 129 43 50 186 199 318 330 254 253 404 384 610 535 5 4
24 18 40 32 55 43 379 255 430 281 17 9 57 31 90 50 61 35 282 145 365 182 25
11 61 27 80 36 19 8 49 19 65 23 17 4 35 10 40 14 6 3 51 21 100 39 50 18 97
36 106 41 9 5 33 12 53 15 20 4 38 11 41 15 3 5 24 11 48 15 23 4 47 11 52 15
6 5 39 13 75 20 36 6 74 16 85 21 11 5 58 15 105 23 160 28 275 51 285 57 6 4
55 10 110 13 55 4 111 11 125 16 32 11 431 30 730 35 735 11 1414 26 1615 35
571 27 2259 37 3285 20z m14180 -15038 c147 -31 289 -153 339 -292 7 -19 17
-44 22 -55 26 -61 29 -181 29 -1174 0 -998 -4 -1141 -30 -1176 -4 -5 -11 -24
-14 -41 -8 -36 -84 -155 -125 -195 -38 -38 -117 -83 -186 -105 -59 -19 -302
-19 -15440 -19 -15191 0 -15381 0 -15442 19 -35 11 -63 23 -63 27 0 4 -11 9
-23 13 -45 11 -144 116 -187 200 -78 149 -75 100 -75 1276 0 973 1 1050 18
1124 17 71 66 181 99 222 19 23 93 97 110 110 31 24 113 54 171 64 33 5 62 12
65 15 3 3 6906 4 15341 2 11689 -2 15349 -6 15391 -15z m-15005 -4514 l241 -2
-46 -41 c-25 -22 -57 -52 -71 -65 -29 -28 -106 -99 -254 -235 -118 -108 -142
-130 -232 -215 -38 -36 -111 -103 -163 -150 -51 -47 -119 -110 -151 -140 -153
-145 -254 -237 -278 -252 -14 -10 -22 -18 -18 -18 4 0 -9 -15 -29 -32 -21 -18
-42 -32 -47 -30 -4 1 -6 -1 -3 -6 3 -5 -13 -23 -34 -41 -22 -18 -61 -53 -88
-79 -80 -78 -216 -201 -238 -217 -12 -8 -25 -11 -29 -7 -4 4 -6 1 -3 -7 2 -8
-19 -35 -46 -60 -28 -25 -58 -54 -67 -63 -9 -10 -21 -18 -28 -18 -6 0 -11 -7
-11 -15 0 -8 -3 -15 -7 -15 -8 0 -27 -16 -178 -155 -48 -44 -104 -95 -124
-113 -20 -18 -54 -51 -76 -73 -23 -22 -44 -37 -48 -33 -4 4 -7 1 -7 -7 -1 -8
-13 -23 -27 -34 -14 -11 -42 -36 -63 -55 -21 -19 -75 -69 -121 -110 -45 -41
-95 -86 -109 -100 -14 -14 -69 -63 -120 -110 -52 -47 -109 -100 -126 -117 -17
-18 -33 -33 -36 -33 -2 0 -36 -30 -75 -67 -39 -38 -108 -102 -154 -143 -45
-41 -99 -92 -119 -112 -20 -21 -39 -38 -42 -38 -3 0 -39 -33 -80 -72 -42 -40
-110 -104 -153 -143 -42 -38 -96 -88 -119 -110 -24 -22 -78 -71 -120 -110 -42
-38 -96 -88 -120 -110 -23 -22 -86 -80 -140 -130 -54 -49 -122 -112 -151 -140
-29 -27 -74 -69 -101 -93 -47 -41 -175 -159 -232 -212 -15 -14 -44 -40 -65
-57 -21 -18 -34 -33 -30 -33 4 0 -3 -8 -17 -18 -26 -17 -56 -44 -136 -119 -25
-24 -50 -43 -56 -43 -6 0 -9 -3 -5 -6 6 -6 -6 -18 -89 -89 -25 -22 -64 -57
-85 -77 -21 -21 -43 -38 -49 -38 -5 0 -10 -7 -10 -15 0 -8 -4 -15 -8 -15 -8 0
-88 -69 -157 -135 -17 -16 -71 -66 -120 -110 -50 -45 -101 -92 -115 -105 -14
-14 -63 -60 -110 -102 -47 -42 -113 -103 -146 -135 -34 -32 -99 -92 -144 -133
-45 -41 -101 -93 -124 -115 -77 -73 -176 -165 -176 -162 0 1 -36 -31 -79 -73
-44 -41 -123 -115 -177 -165 -54 -49 -110 -101 -125 -115 -60 -55 -84 -75 -92
-72 -4 1 -6 -2 -5 -6 2 -5 -19 -29 -47 -54 -27 -25 -66 -61 -86 -79 -20 -19
-76 -70 -124 -114 -48 -44 -106 -98 -129 -120 -39 -36 -174 -160 -244 -223
-38 -34 -165 -150 -237 -217 -33 -30 -64 -55 -68 -55 -5 0 -5 -4 -2 -10 3 -5
1 -10 -5 -10 -6 0 -31 -19 -56 -42 -26 -24 -63 -59 -83 -78 -21 -19 -73 -66
-115 -105 -43 -38 -95 -86 -116 -105 -20 -19 -72 -66 -115 -105 -43 -38 -97
-88 -120 -110 -23 -22 -93 -87 -156 -145 -62 -58 -128 -118 -145 -135 -18 -16
-72 -66 -120 -110 -49 -44 -104 -97 -124 -117 -21 -21 -40 -38 -43 -38 -3 0
-39 -32 -79 -71 -40 -40 -104 -99 -142 -133 -38 -33 -105 -96 -150 -139 -44
-43 -93 -85 -108 -94 -14 -9 -32 -26 -38 -37 -7 -12 -35 -41 -64 -65 -66 -56
-189 -169 -277 -253 -39 -38 -73 -68 -76 -68 -3 0 -22 -17 -42 -37 -47 -49
-133 -123 -143 -123 -5 0 -8 -5 -8 -10 0 -14 -51 -59 -67 -60 -7 0 -13 -6 -13
-14 0 -7 -12 -22 -26 -32 -15 -10 -59 -50 -99 -89 -41 -38 -93 -87 -117 -108
-67 -60 -162 -146 -231 -212 -35 -33 -89 -82 -121 -110 -32 -27 -77 -68 -100
-90 -23 -22 -80 -74 -126 -116 -47 -42 -101 -92 -120 -110 -19 -19 -73 -69
-120 -111 -47 -43 -111 -101 -142 -130 -31 -29 -100 -93 -154 -143 -53 -49
-111 -103 -129 -120 -63 -59 -228 -211 -267 -245 -23 -19 -67 -60 -98 -90
-107 -103 -243 -225 -264 -237 -11 -7 -17 -12 -13 -13 4 0 -9 -15 -29 -32 -21
-18 -53 -48 -72 -65 -19 -18 -39 -33 -43 -33 -5 0 -9 -7 -9 -15 0 -8 -3 -15
-8 -15 -4 0 -41 -32 -82 -71 -41 -40 -93 -85 -114 -100 -21 -16 -36 -29 -32
-29 4 0 -9 -13 -27 -30 -19 -16 -40 -30 -46 -30 -7 0 -10 -4 -6 -9 3 -6 -1
-14 -10 -18 -14 -8 -103 -88 -226 -205 -34 -32 -65 -58 -71 -58 -5 0 -6 -4 -3
-10 3 -5 2 -10 -3 -10 -9 0 -70 -54 -142 -125 -19 -19 -41 -35 -47 -35 -7 0
-13 -6 -13 -12 -1 -7 -12 -22 -26 -33 -14 -11 -50 -44 -81 -72 -31 -29 -60
-53 -65 -53 -4 0 -8 -7 -8 -15 0 -8 -4 -15 -8 -15 -8 0 -50 -36 -127 -108 -16
-16 -72 -66 -124 -113 -52 -46 -126 -114 -165 -152 l-71 -67 -8 37 c-5 21 -17
99 -28 173 -11 74 -26 176 -34 225 -19 126 -53 365 -76 530 -11 77 -26 183
-34 235 -19 126 -52 367 -70 510 -8 63 -17 129 -20 145 -4 17 -13 75 -20 130
-17 124 -53 389 -65 470 -6 44 -5 61 3 64 7 2 29 20 49 40 20 20 57 54 82 76
26 22 72 65 105 95 32 30 86 80 121 110 34 30 74 67 89 81 14 14 69 63 121
110 52 46 108 98 125 114 33 32 232 215 298 275 21 19 58 53 81 75 82 77 365
340 436 405 25 23 63 55 84 71 21 16 35 29 31 29 -4 0 5 12 21 26 34 30 224
205 270 249 18 17 67 62 110 100 42 39 101 93 129 120 29 28 76 70 105 95 29
25 67 60 85 78 18 17 38 32 44 32 6 0 11 7 11 15 0 8 3 15 8 15 4 0 32 24 63
53 52 49 178 164 272 250 23 20 45 37 50 37 4 0 5 5 2 10 -3 6 -2 10 3 10 5 0
29 18 53 41 88 80 137 125 213 194 43 39 95 86 115 105 21 19 78 71 126 115
49 44 116 105 149 137 108 100 209 193 356 328 57 52 118 109 134 125 17 17
83 78 146 135 63 58 122 112 130 120 111 106 254 236 280 255 19 14 31 25 27
25 -4 0 9 15 30 33 20 17 49 43 64 57 177 163 208 191 262 238 21 17 35 32 31
32 -4 0 6 10 22 22 16 13 31 26 32 30 2 5 10 8 18 8 9 0 12 5 9 10 -3 6 -2 10
3 10 5 0 45 35 90 78 179 171 242 227 255 230 8 2 20 14 27 27 7 14 26 30 42
37 15 7 28 17 28 23 0 11 49 55 62 55 4 0 8 5 8 10 0 14 51 59 68 60 6 0 12 6
12 13 1 6 15 23 32 37 17 14 48 41 68 60 29 28 135 125 244 225 6 6 51 46 100
90 49 44 113 103 142 130 29 28 82 77 119 110 36 33 95 87 130 120 36 33 101
94 146 135 45 41 101 93 124 115 24 22 63 58 87 80 62 56 265 243 309 285 20
19 59 55 85 79 27 24 81 73 121 110 39 36 108 100 153 141 45 41 96 89 114
105 18 17 56 51 84 78 28 26 57 47 63 47 7 0 10 3 6 6 -3 4 7 18 24 33 16 14
48 43 70 64 23 20 45 37 50 37 5 0 9 7 9 15 0 8 3 15 8 15 4 0 29 21 57 46 27
25 59 53 72 61 13 8 21 19 18 23 -2 4 8 13 23 21 26 14 67 49 57 49 -3 0 11
15 32 33 20 17 46 41 58 52 12 11 61 56 109 100 48 44 114 105 146 135 31 30
79 73 105 95 26 22 67 58 90 80 23 22 79 74 125 115 45 41 97 89 115 105 29
28 185 172 320 295 33 30 64 60 70 66 5 6 42 39 80 74 39 34 102 92 140 129
39 36 109 101 155 143 47 42 105 95 129 118 24 22 48 40 53 40 5 0 6 5 3 10
-3 6 -2 10 2 10 5 0 29 19 53 43 25 23 90 83 144 132 54 50 128 118 164 152
36 34 70 60 74 57 4 -3 8 1 8 8 0 7 21 31 47 53 25 22 70 63 99 90 29 28 81
75 114 105 34 30 88 80 120 110 32 30 93 87 136 125 42 39 96 89 119 113 23
23 45 42 49 42 4 0 14 7 22 15 14 13 131 15 927 16 502 1 1038 5 1192 9 154 4
330 6 390 4 61 -2 218 -5 350 -6z m6197 -46 l205 -7 -61 -54 c-33 -30 -93 -84
-132 -120 -39 -36 -122 -113 -185 -171 -62 -58 -141 -131 -174 -162 -33 -31
-69 -65 -81 -75 -35 -31 -192 -174 -264 -243 -38 -36 -100 -93 -137 -127 -37
-34 -90 -82 -118 -107 -27 -25 -69 -63 -93 -83 -23 -21 -76 -69 -116 -108
-150 -141 -165 -155 -176 -155 -5 0 -10 -6 -10 -13 0 -7 -12 -21 -27 -32 -15
-11 -39 -31 -54 -45 -14 -14 -68 -63 -118 -110 -51 -47 -122 -114 -159 -149
-37 -35 -80 -72 -97 -82 -16 -10 -28 -20 -25 -21 4 -3 -48 -53 -134 -129 -21
-19 -65 -59 -96 -89 -71 -67 -219 -203 -230 -210 -8 -5 -173 -156 -235 -215
-18 -16 -54 -50 -82 -75 -59 -53 -141 -129 -289 -266 -182 -168 -228 -210
-262 -240 -19 -16 -55 -49 -82 -74 -147 -139 -262 -245 -314 -292 -33 -29 -68
-63 -79 -75 -12 -13 -24 -23 -29 -23 -4 0 -17 -9 -28 -20 -11 -11 -17 -20 -14
-20 3 0 -11 -15 -33 -33 -21 -18 -56 -49 -78 -70 -22 -20 -44 -37 -48 -37 -5
0 -5 -4 -2 -10 3 -5 3 -10 -2 -10 -4 0 -21 -11 -37 -25 -16 -14 -33 -25 -38
-25 -5 0 -6 -4 -3 -10 3 -5 2 -10 -3 -10 -4 0 -44 -34 -88 -75 -79 -75 -105
-99 -249 -230 -42 -38 -96 -88 -119 -110 -73 -69 -249 -230 -306 -280 -30 -27
-68 -63 -84 -82 -16 -18 -32 -33 -37 -33 -5 0 -26 -17 -47 -37 -20 -21 -73
-70 -117 -109 -44 -40 -96 -87 -116 -105 -19 -19 -75 -70 -123 -114 -134 -121
-309 -282 -436 -401 -36 -34 -77 -72 -93 -84 -15 -13 -56 -51 -91 -84 -35 -34
-94 -88 -130 -121 -37 -33 -91 -82 -120 -110 -105 -99 -158 -145 -167 -145 -6
0 -7 -4 -4 -10 3 -5 2 -10 -2 -10 -9 0 -127 -107 -178 -161 -29 -31 -110 -99
-117 -99 -4 0 -8 -7 -8 -15 0 -8 -3 -15 -8 -15 -4 0 -36 -27 -72 -60 -36 -33
-71 -60 -78 -60 -7 0 -11 -4 -8 -8 3 -5 -25 -35 -61 -68 -37 -32 -81 -72 -98
-89 -18 -16 -70 -64 -115 -105 -46 -41 -101 -93 -124 -115 -65 -63 -168 -155
-172 -155 -2 0 -27 -22 -54 -50 -27 -27 -51 -50 -53 -50 -2 0 -28 -24 -59 -52
-85 -82 -122 -113 -130 -110 -5 1 -8 -3 -8 -9 0 -7 -10 -20 -22 -31 -56 -48
-165 -146 -193 -173 -17 -16 -71 -66 -120 -110 -89 -79 -240 -219 -281 -259
-50 -50 -199 -183 -223 -198 -14 -10 -21 -18 -16 -18 6 0 5 -4 -2 -8 -11 -7
-175 -156 -227 -207 -11 -11 -36 -32 -55 -47 -18 -16 -30 -28 -26 -28 4 0 -8
-12 -27 -28 -19 -15 -49 -41 -66 -57 -17 -17 -67 -64 -113 -105 -45 -41 -92
-86 -105 -99 -13 -13 -38 -34 -56 -47 -17 -13 -28 -24 -24 -24 5 0 -7 -12 -25
-27 -19 -16 -61 -53 -94 -84 -33 -31 -87 -82 -120 -113 -33 -30 -66 -56 -73
-56 -7 0 -11 -4 -8 -8 2 -4 -18 -28 -46 -52 -28 -25 -69 -63 -92 -85 -24 -22
-78 -71 -121 -110 -43 -38 -97 -88 -120 -110 -24 -22 -75 -70 -115 -105 -39
-36 -91 -83 -114 -105 -24 -22 -82 -76 -130 -120 -48 -44 -100 -91 -115 -105
-15 -14 -54 -48 -86 -77 -64 -55 -84 -72 -186 -167 -73 -68 -222 -205 -273
-251 -59 -53 -259 -239 -302 -280 -82 -79 -135 -125 -145 -125 -5 0 -9 -6 -9
-13 0 -7 -12 -21 -27 -32 -15 -11 -49 -42 -77 -68 -28 -27 -81 -77 -119 -110
-37 -34 -100 -92 -140 -129 -39 -37 -90 -84 -112 -104 -22 -19 -74 -68 -117
-107 -42 -40 -113 -106 -158 -147 -46 -41 -100 -92 -120 -112 -21 -21 -40 -38
-42 -38 -4 0 -28 -22 -167 -153 -25 -23 -49 -41 -54 -39 -4 1 -6 -2 -3 -7 3
-5 -4 -15 -17 -24 -12 -8 -47 -38 -78 -68 -31 -30 -96 -90 -144 -134 -94 -84
-166 -150 -220 -200 -34 -32 -190 -173 -209 -190 -53 -47 -218 -197 -247 -225
-19 -19 -73 -69 -119 -110 -98 -88 -102 -93 -256 -235 -115 -107 -182 -169
-248 -230 -18 -16 -82 -76 -142 -132 -60 -56 -125 -116 -145 -135 -92 -83
-204 -187 -248 -228 -26 -25 -80 -74 -120 -110 -40 -36 -104 -94 -142 -130
-146 -138 -164 -155 -164 -151 0 2 -31 -26 -68 -63 -38 -36 -73 -64 -78 -60
-5 3 -8 2 -7 -3 3 -9 -72 -93 -82 -93 -4 0 -29 -21 -57 -47 -74 -71 -170 -160
-258 -238 -43 -38 -97 -88 -119 -110 -23 -22 -60 -55 -81 -74 -22 -18 -85 -75
-140 -126 -55 -51 -131 -121 -170 -155 -97 -87 -271 -248 -315 -290 -20 -19
-73 -69 -119 -110 -45 -41 -113 -104 -151 -140 -38 -36 -105 -99 -150 -140
-45 -41 -105 -97 -133 -123 -29 -27 -83 -76 -121 -110 -38 -34 -87 -81 -109
-104 -22 -24 -47 -43 -55 -43 -9 0 -13 -3 -9 -6 3 -4 -7 -18 -24 -33 -17 -14
-45 -39 -63 -56 -103 -95 -172 -158 -245 -225 -46 -41 -104 -95 -130 -120 -68
-64 -95 -85 -104 -82 -5 1 -6 -1 -3 -6 3 -5 -20 -31 -52 -58 -31 -27 -73 -65
-93 -84 -20 -19 -76 -71 -125 -114 -49 -44 -103 -95 -121 -113 -18 -18 -34
-33 -36 -33 -3 0 -22 -17 -44 -37 -22 -21 -77 -72 -123 -113 -125 -114 -141
-128 -241 -220 -50 -47 -95 -86 -99 -88 -8 -3 -100 177 -100 196 0 6 -4 12
-10 12 -5 0 -10 5 -10 11 0 5 -9 29 -19 52 -11 24 -23 56 -27 72 -4 17 -13 36
-20 43 -7 7 -16 32 -20 57 -3 25 -10 43 -14 40 -5 -3 -11 9 -15 27 -4 18 -12
47 -20 63 -7 17 -16 57 -20 90 -4 33 -11 65 -15 70 -4 6 -14 53 -21 105 -7 52
-16 97 -19 100 -6 4 -16 59 -44 220 -4 25 -30 164 -65 355 -10 55 -33 177 -50
270 -17 94 -34 181 -37 195 -4 21 -33 186 -50 285 -4 24 2 37 30 68 19 20 39
37 43 37 4 0 31 24 60 53 28 28 82 79 119 112 36 33 84 77 107 98 22 20 44 37
49 37 4 0 8 7 8 15 0 8 4 15 8 15 4 0 28 18 52 41 25 22 81 73 125 112 44 40
94 86 111 102 18 17 72 66 120 110 48 44 104 96 123 115 20 19 74 69 120 110
47 41 99 89 116 105 68 65 352 328 400 370 41 36 197 181 251 233 24 23 49 42
55 42 5 0 7 5 4 10 -3 6 -2 10 4 10 6 0 30 20 54 45 25 25 47 45 49 45 2 0 29
24 60 53 30 28 99 93 153 142 54 50 110 101 124 115 15 14 71 65 126 115 55
49 114 103 132 120 30 29 166 154 241 223 21 18 53 49 74 68 20 19 41 34 46
34 6 0 13 8 16 18 3 10 15 24 27 32 12 8 60 52 107 97 48 45 90 79 94 77 5 -3
8 1 9 8 0 7 24 33 52 57 29 24 79 69 113 100 33 31 105 97 160 146 54 50 117
108 140 130 23 22 61 58 85 79 24 21 78 71 120 110 42 39 113 105 158 146 45
41 99 91 120 110 20 19 73 68 117 108 43 41 111 104 150 140 76 71 210 193
259 237 17 14 57 52 91 83 33 31 104 98 158 147 54 50 120 110 146 135 27 25
74 68 105 95 31 28 87 79 125 115 75 72 224 208 277 255 19 17 53 47 74 68 22
20 44 37 49 37 6 0 10 7 10 15 0 8 3 15 8 15 4 0 30 21 57 48 28 26 73 67 100
91 28 24 66 57 85 75 42 37 245 224 342 315 38 36 76 70 86 77 9 6 46 40 82
75 36 35 103 98 149 139 46 41 110 100 142 130 91 86 148 139 243 225 49 44
115 105 147 135 57 54 200 186 265 245 66 59 197 181 251 232 30 29 69 63 85
75 17 13 38 32 47 42 22 26 40 44 93 91 24 22 91 83 149 136 155 144 173 159
182 159 4 0 5 5 2 10 -3 6 -2 10 3 10 5 0 27 17 49 38 60 57 163 147 174 150
5 2 9 10 9 18 0 8 4 14 9 14 5 0 27 17 49 38 22 20 60 54 84 76 109 98 293
265 363 331 29 28 90 84 136 126 46 42 100 92 120 110 20 19 73 68 118 109 45
41 115 107 156 145 40 39 94 88 120 110 25 22 72 65 104 95 32 30 102 96 156
145 54 50 109 101 124 115 15 14 69 64 121 111 52 47 111 101 130 120 20 19
75 70 123 114 49 44 103 93 120 109 18 16 66 61 108 100 41 39 108 100 148
136 40 36 98 89 128 118 30 28 59 50 64 46 5 -3 9 1 9 8 0 8 29 41 65 73 36
33 92 85 125 115 32 30 80 73 106 95 25 22 65 58 89 80 24 22 80 74 126 115
45 41 93 84 106 96 12 12 62 57 109 100 48 43 105 97 129 119 23 22 81 76 129
120 105 95 129 117 221 204 135 127 186 171 196 171 6 0 7 5 4 10 -3 6 -2 10
3 10 4 0 38 28 74 63 198 188 263 247 277 247 8 0 12 3 8 6 -6 6 13 26 109
113 67 61 239 219 294 271 39 36 79 73 245 225 54 50 120 110 146 135 26 25
75 70 109 100 34 30 87 79 119 108 31 30 87 81 126 115 38 34 84 76 101 92 18
17 65 59 105 95 91 81 183 165 224 205 17 17 76 70 130 120 55 49 110 98 121
110 12 11 51 47 87 80 35 33 108 101 162 150 159 147 166 154 253 234 46 42
100 92 121 111 20 19 87 82 150 140 62 58 128 119 146 135 17 17 72 66 120
110 49 44 107 98 130 120 54 52 232 216 314 288 35 31 68 57 74 57 6 0 8 3 5
6 -5 5 25 34 141 139 24 22 62 57 84 79 22 21 49 44 61 50 25 12 2503 11 2868
-2z m-12252 -33 c-127 -116 -270 -249 -310 -287 -25 -24 -71 -67 -103 -94 -31
-28 -75 -68 -96 -89 -21 -22 -44 -39 -50 -39 -7 0 -9 -4 -6 -10 3 -5 2 -10 -3
-10 -5 0 -45 -35 -89 -77 -131 -126 -245 -228 -260 -231 -7 -2 -13 -9 -13 -15
0 -7 -12 -21 -26 -32 -15 -11 -59 -51 -99 -90 -40 -38 -101 -95 -135 -125 -34
-30 -86 -77 -116 -105 -147 -138 -217 -201 -237 -212 -12 -7 -18 -12 -13 -13
4 0 -6 -12 -24 -27 -18 -16 -49 -44 -69 -63 -46 -44 -175 -163 -276 -255 -42
-38 -83 -76 -90 -82 -7 -7 -19 -13 -25 -13 -6 0 -9 -4 -6 -8 3 -5 -9 -19 -25
-33 -16 -13 -61 -53 -98 -89 -38 -36 -101 -94 -141 -130 -41 -36 -100 -90
-133 -120 -32 -30 -64 -53 -70 -52 -7 2 -9 1 -5 -3 8 -8 8 -8 -67 -74 -28 -24
-82 -74 -121 -110 -76 -71 -239 -221 -337 -311 -33 -30 -75 -68 -92 -85 -18
-16 -72 -66 -120 -110 -48 -44 -113 -105 -145 -135 -32 -30 -85 -78 -117 -107
-32 -28 -78 -70 -101 -92 -24 -23 -48 -41 -53 -41 -6 0 -8 -4 -5 -9 4 -5 2
-11 -3 -13 -5 -1 -53 -43 -106 -93 -109 -100 -120 -111 -230 -210 -42 -38 -96
-88 -120 -110 -24 -22 -82 -76 -130 -120 -47 -44 -113 -105 -145 -135 -32 -30
-88 -82 -125 -115 -37 -33 -94 -85 -125 -115 -32 -30 -93 -86 -136 -125 -42
-38 -89 -82 -105 -97 -15 -14 -30 -23 -33 -20 -3 3 -6 0 -6 -7 0 -14 -60 -67
-72 -64 -4 2 -8 -3 -9 -10 0 -6 -28 -35 -62 -64 -34 -29 -87 -76 -118 -105
-30 -29 -77 -73 -105 -97 -27 -25 -83 -76 -125 -115 -42 -39 -120 -111 -174
-161 -54 -49 -126 -116 -159 -147 -34 -32 -67 -58 -73 -58 -7 0 -13 -6 -13
-13 0 -7 -14 -23 -30 -37 -17 -14 -62 -54 -100 -90 -38 -36 -99 -93 -137 -127
-37 -33 -91 -83 -120 -110 -52 -49 -172 -159 -252 -233 -24 -22 -48 -40 -53
-40 -4 0 -8 -7 -8 -15 0 -8 -4 -15 -8 -15 -5 0 -51 -40 -103 -90 -52 -49 -101
-92 -110 -95 -9 -3 -22 -17 -29 -30 -7 -14 -16 -25 -20 -25 -3 0 -17 -10 -30
-22 -14 -13 -28 -22 -32 -20 -5 1 -8 -3 -8 -9 0 -10 -24 -39 -32 -39 -2 0 -51
-45 -108 -99 -57 -55 -109 -97 -115 -94 -5 4 -7 3 -3 -1 6 -8 -29 -44 -118
-121 -25 -22 -70 -64 -100 -93 -30 -29 -59 -50 -64 -47 -6 4 -9 2 -8 -3 3 -12
-154 -165 -194 -190 -16 -9 -28 -22 -28 -29 0 -7 -4 -13 -9 -13 -5 0 -33 -23
-62 -51 -30 -29 -106 -98 -169 -154 -63 -56 -140 -126 -170 -154 l-55 -51 -8
37 c-7 35 -26 184 -62 483 -7 63 -16 129 -19 145 -4 17 -14 93 -22 170 -8 77
-24 214 -35 305 -11 91 -26 219 -34 285 -8 66 -17 131 -20 145 -3 14 -12 90
-20 170 -24 231 -78 688 -90 765 -7 40 -6 40 75 115 45 41 101 93 124 115 24
22 69 63 101 90 57 49 158 142 220 200 18 17 54 50 82 75 159 145 231 210 277
255 29 28 85 79 125 115 41 36 95 85 121 110 98 93 277 259 324 301 26 24 80
74 120 111 39 36 97 90 130 120 32 29 85 78 117 108 32 30 79 73 105 95 26 22
58 52 72 67 14 15 29 25 34 22 5 -3 7 -2 6 3 -3 9 16 27 153 153 45 41 101 94
124 118 23 23 44 42 47 42 2 0 30 24 60 53 84 79 170 157 227 207 28 25 82 74
120 110 61 57 164 152 256 235 17 15 48 43 70 63 22 21 63 57 90 81 28 25 100
91 160 147 61 56 124 114 140 128 26 24 158 145 250 231 18 17 72 66 120 110
48 44 118 109 156 145 37 36 100 94 140 130 39 36 79 73 87 83 9 9 22 17 30
17 7 0 11 4 7 9 -3 5 4 16 15 24 21 15 130 114 257 235 36 34 73 62 81 62 8 0
13 3 10 6 -5 5 46 64 55 64 1 0 41 36 87 80 157 148 171 160 180 160 6 0 10 7
10 15 0 8 4 15 9 15 5 0 30 20 55 45 26 25 48 45 50 45 2 0 24 19 48 43 24 23
81 76 127 117 46 41 93 85 105 97 l21 23 1100 3 c605 1 1302 3 1550 5 l449 2
-44 -41z m-6305 -85 c-64 -58 -124 -113 -134 -122 -68 -64 -265 -247 -305
-283 -67 -61 -123 -113 -203 -189 -38 -36 -91 -85 -118 -109 -28 -24 -84 -76
-126 -115 -42 -39 -120 -111 -174 -161 -53 -49 -116 -108 -139 -129 -22 -21
-58 -51 -78 -66 -21 -15 -35 -29 -33 -32 3 -3 -8 -15 -25 -28 -16 -12 -61 -52
-99 -89 -99 -94 -164 -151 -173 -151 -4 0 -8 -7 -8 -15 0 -8 -3 -15 -7 -15 -9
0 -73 -57 -145 -127 -27 -25 -48 -44 -48 -41 0 3 -31 -24 -69 -61 -103 -98
-241 -226 -280 -258 -18 -15 -50 -44 -70 -63 -20 -19 -73 -68 -118 -108 l-81
-72 -7 107 c-3 60 -10 119 -15 133 -5 14 -14 102 -21 195 -7 94 -16 175 -21
181 -12 17 -11 455 2 468 5 5 10 24 10 41 0 47 23 185 30 185 4 0 10 21 14 48
3 26 12 59 20 74 8 15 17 40 21 57 4 17 11 31 16 31 5 0 9 5 9 12 0 10 45 105
74 153 51 88 155 217 169 208 5 -3 7 -1 4 4 -8 13 124 134 182 167 9 5 22 16
29 23 7 7 19 13 27 13 7 0 15 4 17 8 4 11 154 92 170 92 7 0 36 11 63 25 28
13 60 25 72 25 12 0 24 4 27 8 3 5 38 14 78 22 102 18 100 17 131 29 16 6 52
11 80 12 29 0 61 4 72 9 11 5 307 9 658 9 l637 1 -115 -106z m24773 3 c-62
-56 -124 -114 -138 -127 -14 -14 -75 -70 -135 -125 -130 -120 -202 -186 -259
-240 -24 -22 -94 -87 -156 -145 -62 -58 -127 -118 -145 -135 -18 -16 -70 -64
-116 -105 -45 -41 -92 -84 -103 -96 -12 -11 -52 -49 -91 -83 -38 -35 -102 -93
-142 -130 -39 -36 -108 -100 -153 -141 -45 -41 -94 -86 -109 -100 -14 -14 -39
-35 -55 -48 -16 -12 -25 -22 -20 -22 5 0 -13 -16 -40 -35 -27 -19 -46 -35 -42
-35 3 0 -10 -15 -30 -32 -21 -18 -53 -48 -72 -65 -19 -18 -39 -33 -43 -33 -5
0 -9 -7 -9 -15 0 -8 -4 -15 -8 -15 -5 0 -28 -18 -52 -40 -24 -22 -64 -57 -88
-78 -25 -20 -52 -46 -61 -56 -9 -10 -25 -26 -35 -35 -19 -16 -54 -48 -118
-106 -18 -17 -60 -55 -93 -85 -105 -94 -325 -297 -457 -420 -20 -19 -74 -69
-119 -110 -45 -41 -116 -107 -158 -146 -42 -39 -95 -88 -119 -110 -24 -21 -63
-57 -86 -79 -97 -91 -286 -266 -417 -385 -45 -41 -101 -93 -124 -115 -23 -22
-80 -74 -126 -116 -46 -42 -100 -92 -120 -110 -20 -19 -76 -70 -124 -114 -48
-44 -102 -93 -120 -110 -191 -175 -210 -192 -345 -315 -46 -41 -100 -91 -120
-110 -70 -65 -195 -180 -221 -202 -26 -23 -184 -166 -245 -223 -17 -16 -69
-64 -114 -105 -45 -41 -101 -93 -124 -115 -24 -22 -94 -87 -156 -145 -63 -58
-128 -118 -146 -135 -29 -28 -168 -156 -233 -215 -15 -14 -57 -53 -94 -87 -37
-35 -67 -62 -67 -60 0 1 -36 -31 -79 -73 -145 -139 -273 -255 -300 -272 -14
-10 -22 -18 -17 -18 5 0 -4 -10 -20 -22 -16 -12 -33 -28 -37 -35 -5 -8 -13
-11 -18 -7 -5 3 -8 1 -7 -4 2 -5 -6 -18 -18 -28 -59 -53 -195 -177 -257 -236
-39 -37 -74 -65 -79 -62 -4 3 -8 0 -8 -7 0 -6 -10 -21 -23 -33 -41 -38 -209
-190 -237 -216 -15 -14 -63 -56 -105 -95 -43 -38 -95 -86 -115 -105 -20 -19
-72 -66 -115 -105 -42 -38 -96 -88 -119 -110 -23 -22 -78 -71 -121 -110 -44
-38 -113 -101 -154 -140 -41 -38 -89 -83 -107 -100 -18 -16 -55 -50 -82 -75
-26 -25 -100 -92 -162 -150 -63 -58 -129 -118 -146 -135 -18 -16 -72 -66 -120
-110 -48 -44 -106 -98 -130 -120 -65 -63 -226 -211 -254 -235 -30 -25 -225
-206 -290 -268 -25 -24 -72 -67 -104 -95 -32 -29 -82 -74 -110 -101 -28 -26
-64 -57 -81 -67 -16 -10 -26 -19 -21 -19 5 0 -17 -25 -49 -55 -32 -30 -60 -55
-63 -55 -3 0 -23 -18 -46 -40 -69 -68 -129 -120 -138 -120 -4 0 -8 -5 -8 -10
0 -14 -51 -59 -67 -60 -7 0 -13 -6 -13 -12 -1 -7 -12 -22 -26 -33 -24 -19
-145 -132 -211 -197 -18 -18 -33 -29 -33 -25 0 3 -31 -24 -69 -61 -67 -65
-100 -96 -362 -332 -62 -56 -94 -86 -209 -194 -36 -33 -115 -106 -175 -161
-59 -55 -123 -113 -141 -130 -32 -30 -202 -186 -254 -235 -172 -159 -238 -220
-272 -250 -22 -19 -66 -59 -97 -88 -132 -126 -245 -228 -265 -239 -11 -7 -17
-12 -13 -13 4 0 -9 -15 -29 -32 -21 -18 -53 -48 -72 -65 -19 -18 -39 -33 -44
-33 -5 0 -6 -4 -3 -10 3 -5 3 -10 -2 -10 -4 0 -39 -30 -78 -65 -38 -36 -73
-65 -78 -65 -4 0 -5 -5 -2 -10 3 -5 2 -10 -3 -10 -5 0 -26 -13 -47 -30 -21
-16 -35 -30 -31 -30 4 0 -10 -15 -31 -32 -20 -18 -44 -39 -53 -46 -8 -8 -49
-46 -91 -85 -42 -40 -88 -81 -102 -92 -15 -11 -26 -26 -27 -32 0 -7 -4 -13
-10 -13 -5 0 -28 -17 -50 -37 -64 -61 -89 -81 -95 -75 -3 3 -5 -2 -5 -11 0 -9
-8 -21 -17 -26 -10 -5 -52 -41 -93 -80 -87 -82 -93 -87 -225 -206 -55 -49
-107 -96 -115 -105 -8 -8 -60 -56 -115 -105 -55 -50 -116 -106 -136 -125 -36
-36 -199 -186 -299 -276 -30 -27 -71 -65 -90 -84 -32 -31 -74 -70 -284 -261
-32 -30 -78 -72 -101 -94 -115 -109 -218 -200 -226 -198 -5 2 -8 -1 -6 -5 1
-4 -27 -35 -62 -67 -36 -33 -82 -76 -103 -95 -55 -52 -99 -91 -140 -127 -20
-17 -34 -34 -31 -37 4 -3 1 -6 -5 -6 -6 0 -30 -18 -54 -41 -24 -22 -59 -55
-78 -73 -19 -19 -45 -39 -58 -45 -12 -7 -20 -16 -17 -22 4 -5 2 -9 -2 -9 -8 0
-35 -24 -170 -151 -23 -21 -47 -39 -53 -39 -5 0 -10 -6 -10 -13 0 -7 -12 -21
-27 -32 -15 -11 -36 -30 -47 -43 -12 -13 -36 -33 -54 -44 -18 -11 -31 -23 -28
-25 3 -3 -9 -17 -27 -32 -39 -31 -89 -78 -163 -148 -30 -29 -54 -51 -54 -48 0
3 -11 -4 -24 -17 -47 -47 -143 -136 -206 -193 -103 -93 -272 -248 -294 -271
-12 -11 -70 -65 -131 -120 -152 -138 -208 -190 -274 -253 -31 -29 -78 -72
-105 -95 -27 -22 -62 -56 -79 -73 -16 -18 -38 -35 -49 -38 -10 -4 -16 -10 -13
-15 3 -5 -1 -12 -9 -17 -8 -4 -54 -45 -103 -90 -160 -149 -187 -173 -196 -173
-4 0 -6 -4 -3 -8 2 -4 -9 -17 -25 -27 -16 -11 -29 -23 -29 -27 0 -5 -7 -8 -16
-8 -8 0 -12 -4 -9 -10 3 -5 3 -10 -2 -10 -4 0 -45 -35 -89 -78 -97 -91 -203
-186 -215 -190 -5 -2 -7 -8 -3 -13 3 -5 1 -9 -4 -9 -10 0 -86 -68 -298 -268
-25 -23 -56 -49 -69 -58 -14 -9 -22 -20 -19 -25 3 -5 1 -9 -5 -9 -11 0 -79
-61 -138 -122 -20 -21 -40 -38 -44 -38 -4 0 -40 -31 -78 -70 -39 -38 -73 -70
-75 -70 -3 0 -22 -17 -44 -37 -21 -21 -78 -74 -127 -118 -79 -71 -145 -132
-252 -230 -18 -16 -69 -64 -115 -105 -45 -41 -101 -93 -123 -115 -23 -22 -75
-70 -116 -107 -41 -36 -95 -86 -120 -110 -25 -24 -85 -79 -133 -123 -48 -44
-102 -93 -120 -110 -104 -96 -230 -211 -240 -220 -6 -5 -28 -25 -49 -42 -21
-18 -34 -33 -30 -33 4 0 -3 -8 -17 -18 -29 -19 -71 -57 -135 -119 -23 -24 -49
-43 -56 -43 -7 0 -10 -3 -6 -6 3 -3 -6 -17 -21 -30 -90 -81 -190 -173 -216
-200 -17 -17 -41 -36 -54 -43 -12 -7 -20 -16 -17 -22 4 -5 2 -9 -3 -9 -6 0
-20 -11 -33 -25 -13 -13 -30 -25 -38 -25 -8 0 -12 -3 -9 -6 7 -7 -20 -36 -56
-59 -14 -10 -23 -21 -20 -26 3 -5 -470 -8 -1133 -8 -626 1 -1122 5 -1103 8 28
6 17 8 -55 15 -108 9 -216 26 -230 36 -5 4 -43 12 -82 19 -40 7 -75 17 -79 22
-3 5 -12 9 -20 9 -8 0 -33 9 -55 19 -22 11 -53 23 -69 26 -17 4 -30 11 -30 16
0 5 -9 9 -20 9 -11 0 -20 5 -20 10 0 6 3 10 8 10 4 0 42 33 84 73 43 39 115
106 160 147 45 41 98 91 118 110 20 19 77 71 126 115 95 86 174 159 259 240
28 28 75 70 104 95 29 25 70 62 91 83 20 20 43 37 49 37 7 0 9 5 6 10 -3 6 4
14 17 19 13 6 19 10 13 11 -5 0 -4 4 4 9 12 8 117 103 218 199 25 23 49 42 55
42 5 0 6 4 3 10 -3 6 -2 10 3 10 5 0 34 24 65 53 106 100 149 137 158 137 5 0
9 7 9 15 0 8 3 15 8 15 4 0 27 18 52 41 61 54 192 175 240 222 22 20 41 37 44
37 3 0 23 17 44 38 21 20 61 57 88 82 50 44 226 206 289 265 18 17 70 64 116
105 45 41 101 93 124 115 22 22 76 72 119 110 44 39 98 88 120 110 23 22 91
85 151 140 60 55 124 114 142 132 18 18 33 31 33 29 0 -1 35 31 79 73 68 66
132 125 271 250 19 17 38 31 43 31 4 0 5 4 2 10 -3 5 -3 10 2 10 4 0 33 24 64
53 30 28 95 88 144 132 78 71 117 107 249 230 87 81 191 175 247 225 34 30 71
65 83 78 11 12 26 22 33 22 7 0 13 5 13 10 0 6 12 22 28 35 15 14 59 54 97 89
39 35 92 84 119 108 27 24 79 70 115 104 36 34 91 83 121 109 30 27 64 58 75
69 11 12 65 61 119 110 54 49 113 103 131 120 18 17 72 67 119 111 48 44 102
94 120 110 18 17 81 75 140 130 60 55 134 124 165 152 31 29 62 53 68 53 7 0
12 4 10 9 -2 7 101 111 110 111 2 0 20 17 41 38 22 20 78 73 126 117 48 44
102 94 120 110 18 17 41 37 52 46 10 9 26 25 35 35 8 10 35 36 60 57 50 44
174 156 259 237 142 134 233 216 256 230 13 8 24 19 24 23 0 5 12 19 28 31 15
11 57 49 94 84 36 35 70 64 75 64 4 0 15 10 23 22 8 11 28 32 45 46 16 14 42
38 57 53 16 15 28 25 28 23 0 -3 17 11 38 32 21 20 63 60 93 87 31 28 102 93
160 146 57 53 164 151 238 219 187 172 238 219 286 265 24 22 75 70 115 105
83 75 215 197 275 255 58 56 89 80 97 77 5 -1 7 1 5 6 -2 8 63 73 153 152 30
26 83 74 116 107 141 133 154 144 165 137 7 -4 9 -3 6 3 -7 11 16 36 103 113
34 30 89 80 121 110 32 30 95 89 140 130 46 41 98 89 116 105 18 17 53 48 78
70 25 22 79 72 120 110 41 39 95 88 121 110 25 22 54 49 63 59 9 10 25 26 35
35 37 31 98 86 135 124 21 20 41 37 44 37 2 0 22 17 44 38 60 57 243 226 260
239 18 14 219 201 275 256 21 20 39 37 41 37 2 0 28 24 59 53 30 28 99 93 153
142 54 50 117 108 140 130 75 71 257 240 265 245 9 6 218 200 275 255 22 22
65 60 94 85 30 25 68 60 84 78 17 17 36 32 44 32 7 0 13 6 13 13 1 6 15 23 32
37 17 14 61 54 99 90 37 36 91 85 119 110 28 25 69 62 91 83 23 20 45 37 50
37 6 0 7 5 4 10 -3 6 -2 10 3 10 4 0 33 24 64 53 68 63 197 181 257 234 24 21
70 63 102 93 32 30 86 80 120 110 34 30 74 66 89 80 15 14 51 47 81 74 30 27
86 78 125 115 38 36 117 109 174 161 57 52 122 113 145 135 23 22 64 60 91 85
66 60 269 247 309 285 17 17 58 54 90 83 33 30 79 71 102 93 23 21 46 39 53
39 6 0 9 4 6 8 -3 5 12 23 33 40 22 18 58 51 82 75 24 23 79 73 121 110 43 37
75 67 72 67 -4 0 6 10 22 22 16 12 32 26 35 31 4 5 12 6 19 2 8 -5 11 -3 8 5
-3 11 33 49 142 148 19 18 62 57 95 87 33 30 63 55 68 55 4 0 5 5 2 10 -3 6
-2 10 3 10 5 0 28 17 50 38 35 32 86 79 243 222 21 19 59 53 84 75 25 22 62
57 82 78 20 20 42 37 50 37 7 0 13 7 13 15 0 8 3 15 8 15 4 0 33 24 65 54 32
30 79 73 105 97 88 80 256 234 327 300 38 36 92 86 119 110 26 24 67 62 91 84
23 22 82 76 130 120 131 121 133 122 255 235 62 58 132 123 155 145 24 22 65
60 91 84 27 24 81 73 121 110 39 36 108 100 153 141 45 41 98 91 119 110 110
102 131 120 142 120 7 0 10 3 6 6 -3 3 6 17 21 30 15 14 46 42 69 64 23 22 46
40 52 40 6 0 11 7 11 15 0 8 3 15 8 15 4 0 25 17 47 38 22 20 52 46 66 57 14
11 26 23 25 27 -1 5 21 24 48 43 27 19 46 35 42 35 -3 0 10 15 31 33 20 17 49
43 64 57 15 14 64 59 109 100 45 41 103 94 127 118 25 23 49 42 55 42 5 0 6 5
3 10 -3 6 -2 10 2 10 5 0 29 18 53 40 52 47 183 168 241 222 22 20 72 65 111
100 39 35 88 79 108 98 20 19 61 58 91 85 113 104 283 261 311 287 15 15 28
26 28 25 0 -2 28 24 63 57 34 34 102 97 150 141 49 44 112 103 142 130 29 28
91 84 137 126 45 42 99 92 119 110 20 19 76 70 124 114 48 44 102 94 119 110
63 59 185 171 246 225 34 30 88 80 119 110 53 51 110 102 176 158 15 12 23 22
19 22 -5 0 3 8 16 17 14 10 40 31 57 48 73 67 189 175 198 184 6 6 586 10
1553 11 l1542 0 -112 -103z m1650 -1532 c-4 -93 -12 -208 -18 -255 -6 -47 -16
-143 -23 -213 -7 -71 -14 -127 -17 -124 -3 3 -5 -20 -6 -51 -1 -31 -9 -120
-18 -197 -10 -77 -23 -193 -29 -258 -7 -65 -14 -116 -17 -114 -3 3 -6 -22 -7
-56 -1 -53 -18 -217 -37 -372 -3 -22 -12 -101 -20 -175 -29 -263 -57 -507 -71
-625 -8 -66 -23 -199 -34 -295 -24 -215 -27 -229 -61 -260 -24 -23 -187 -171
-214 -195 -103 -92 -218 -197 -247 -225 -19 -19 -80 -75 -134 -125 -185 -169
-219 -200 -256 -235 -135 -126 -294 -272 -374 -344 -16 -15 -70 -65 -120 -111
-157 -146 -178 -165 -187 -165 -4 0 -8 -5 -8 -11 0 -11 -37 -45 -74 -66 -12
-7 -17 -12 -12 -13 5 0 -2 -9 -15 -21 -26 -22 -155 -141 -249 -229 -32 -30
-86 -80 -120 -110 -33 -30 -92 -84 -130 -120 -38 -36 -91 -83 -116 -105 -26
-22 -54 -48 -62 -57 -9 -9 -20 -14 -25 -11 -6 3 -7 1 -4 -4 4 -6 -14 -28 -40
-49 -25 -22 -69 -61 -98 -89 -69 -68 -177 -165 -181 -165 -3 0 -27 -22 -54
-50 -27 -27 -54 -50 -60 -50 -5 0 -10 -4 -10 -9 0 -5 -35 -39 -77 -76 -82 -71
-236 -212 -308 -280 -65 -62 -216 -199 -234 -212 -9 -6 -57 -51 -107 -100 -50
-48 -129 -122 -174 -163 -45 -41 -91 -83 -101 -92 -11 -10 -24 -18 -30 -18 -5
0 -7 -4 -4 -10 3 -5 3 -10 -2 -10 -4 0 -45 -35 -90 -78 -97 -92 -147 -137
-192 -174 -19 -16 -30 -28 -26 -28 4 0 -8 -12 -27 -28 -19 -15 -49 -41 -66
-57 -16 -17 -67 -64 -112 -105 -44 -41 -99 -92 -121 -112 -22 -21 -45 -38 -50
-38 -5 0 -9 -7 -9 -15 0 -8 -4 -15 -9 -15 -5 0 -29 -19 -54 -42 -163 -154
-203 -191 -277 -258 -46 -41 -100 -92 -121 -112 -22 -21 -40 -38 -42 -38 -2 0
-29 -24 -59 -52 -77 -73 -147 -137 -253 -232 -49 -45 -103 -94 -120 -111 -17
-16 -65 -59 -106 -95 -40 -36 -79 -69 -85 -75 -6 -5 -55 -50 -109 -100 -99
-91 -201 -185 -260 -240 -18 -16 -76 -70 -130 -120 -54 -49 -116 -107 -138
-127 -22 -21 -41 -38 -42 -38 -2 0 -29 -25 -60 -55 -32 -30 -62 -55 -66 -55
-5 0 -9 -7 -9 -15 0 -8 -3 -15 -7 -15 -5 0 -35 -25 -68 -55 -109 -100 -215
-199 -274 -255 -32 -30 -86 -80 -120 -110 -34 -30 -93 -84 -131 -120 -38 -36
-106 -99 -151 -140 -45 -41 -98 -91 -119 -110 -21 -19 -75 -69 -120 -110 -46
-41 -100 -92 -120 -112 -21 -21 -40 -38 -43 -38 -4 0 -31 -24 -61 -52 -68 -66
-150 -143 -251 -233 -42 -38 -94 -87 -115 -107 -21 -21 -40 -38 -43 -38 -2 0
-34 -28 -70 -62 -37 -35 -86 -80 -109 -100 -24 -21 -61 -54 -83 -74 -91 -83
-220 -201 -249 -229 -18 -16 -83 -77 -146 -135 -62 -58 -128 -118 -146 -135
-17 -16 -59 -54 -91 -83 -33 -29 -91 -83 -129 -120 -39 -37 -110 -103 -158
-147 -48 -44 -105 -97 -127 -117 -21 -21 -44 -38 -50 -38 -5 0 -8 -4 -5 -9 4
-5 2 -11 -3 -13 -5 -1 -49 -39 -96 -83 -156 -145 -172 -159 -245 -225 -39 -36
-93 -85 -119 -110 -26 -25 -80 -74 -120 -110 -40 -36 -92 -83 -115 -105 -52
-49 -168 -156 -271 -250 -42 -38 -96 -88 -120 -110 -23 -22 -60 -56 -82 -75
-45 -40 -205 -185 -237 -215 -12 -11 -64 -58 -116 -105 -52 -47 -101 -92 -110
-100 -9 -8 -43 -39 -76 -69 -32 -30 -110 -102 -173 -160 -63 -58 -129 -119
-146 -136 -131 -120 -215 -199 -275 -255 -38 -36 -89 -83 -114 -105 -26 -22
-77 -69 -115 -105 -118 -111 -248 -231 -404 -373 -38 -34 -95 -87 -127 -117
-48 -46 -180 -168 -276 -255 -59 -54 -189 -173 -213 -194 -14 -13 -45 -41 -68
-62 -23 -22 -47 -39 -54 -39 -7 0 -9 -3 -6 -7 4 -3 -4 -15 -17 -27 -25 -23
-181 -165 -226 -206 -15 -14 -63 -56 -105 -95 -43 -38 -88 -79 -99 -90 -12
-12 -70 -65 -131 -120 -60 -54 -164 -149 -230 -210 -66 -62 -144 -134 -174
-161 -30 -27 -74 -67 -97 -89 -23 -22 -81 -76 -129 -120 -47 -44 -113 -105
-145 -135 -33 -30 -87 -80 -121 -110 -34 -30 -92 -84 -130 -120 -81 -77 -211
-197 -257 -237 -34 -28 -90 -81 -219 -205 -39 -38 -76 -68 -82 -68 -6 0 -11
-7 -11 -15 0 -8 -4 -15 -8 -15 -9 0 -27 -16 -192 -169 -146 -135 -164 -151
-173 -151 -4 0 -5 -5 -2 -10 4 -7 -514 -10 -1545 -10 l-1552 0 33 31 c39 35
211 195 275 254 24 22 70 65 104 95 33 30 90 83 126 118 36 34 70 59 76 56 6
-4 8 -3 5 3 -5 8 33 47 172 171 60 54 187 172 265 247 40 39 95 88 120 110 26
22 64 57 84 77 20 21 40 38 43 38 3 0 39 33 81 72 41 40 109 105 152 143 43
39 97 88 120 110 23 22 62 57 86 78 54 46 175 156 234 212 49 46 132 122 237
217 41 36 99 90 131 120 54 51 179 166 256 236 21 19 71 66 113 105 42 40 119
111 170 158 52 48 125 115 163 150 38 35 73 63 77 62 5 -2 9 3 9 11 0 7 15 25
33 39 17 14 62 54 99 88 36 35 103 98 149 139 46 41 100 91 120 110 21 19 57
53 81 75 24 22 93 86 153 141 61 56 130 119 154 140 24 22 63 57 86 79 24 22
78 73 120 113 42 39 79 72 82 72 5 0 71 62 162 153 21 20 43 37 50 37 7 0 9 4
6 10 -3 5 -2 10 2 10 5 0 39 28 76 63 205 191 268 247 280 247 4 0 7 6 7 13 1
6 17 25 38 40 33 25 169 148 257 232 17 17 68 63 113 104 80 72 105 94 258
239 40 37 109 101 155 142 45 41 98 89 116 107 18 18 33 31 33 29 0 -2 31 26
69 63 38 36 110 104 161 151 51 47 124 114 162 150 39 36 75 64 79 63 5 -2 9
2 9 8 0 5 21 29 46 52 114 105 129 117 137 117 4 0 5 5 2 10 -3 6 -2 10 3 10
5 0 30 19 54 43 25 23 71 66 104 95 155 140 208 189 232 215 14 15 32 27 40
27 9 0 13 3 10 6 -6 5 46 64 57 64 3 0 23 17 44 38 22 20 74 69 116 107 43 39
111 103 153 143 41 39 77 72 79 72 2 0 22 17 44 38 22 20 55 51 72 67 33 30
60 55 241 220 55 50 120 110 145 133 25 24 67 62 93 84 25 22 77 70 115 107
70 66 226 211 295 273 73 66 180 164 247 228 100 94 190 177 261 240 34 30 78
72 98 93 19 20 41 37 48 37 6 0 15 7 18 16 3 8 11 12 16 9 6 -4 9 -2 8 3 -4
12 91 106 116 115 10 4 16 10 13 14 -4 3 8 17 26 32 31 24 56 47 146 131 31
30 155 144 276 255 18 17 65 59 105 95 40 36 89 82 110 102 21 20 40 34 44 31
3 -4 6 1 6 10 0 8 4 17 10 19 9 3 133 115 233 211 27 26 55 47 61 47 6 0 16
10 21 23 6 12 13 21 17 20 4 -1 26 17 50 40 24 23 77 74 120 112 148 136 244
224 279 257 20 18 73 67 119 108 46 41 97 89 114 105 82 77 199 186 265 245
39 36 97 89 128 118 31 28 60 52 65 52 5 0 6 5 3 10 -3 6 -2 10 2 10 5 0 42
32 83 70 41 39 99 92 129 118 29 26 72 65 95 87 23 22 84 78 135 125 51 47
115 106 142 132 27 26 49 45 49 42 0 -2 21 19 47 46 26 28 52 50 58 50 7 0 18
11 25 25 7 14 16 25 20 25 4 0 31 23 61 51 113 106 148 138 171 153 12 9 18
16 13 16 -6 0 -5 4 2 8 20 12 102 85 158 140 30 28 59 52 65 52 5 0 10 7 10
15 0 8 3 15 8 15 7 0 36 26 140 121 28 26 53 44 56 41 3 -3 6 1 6 9 0 8 12 23
27 34 15 11 41 34 59 50 18 17 54 50 81 73 103 94 208 190 276 255 40 38 92
85 116 105 24 20 67 61 97 90 29 28 55 52 58 52 2 0 33 28 68 63 36 34 97 91
137 127 40 36 89 82 109 103 19 20 41 37 49 37 7 0 13 7 13 15 0 8 4 15 8 15
5 0 35 26 68 58 34 31 95 89 137 127 43 39 96 88 120 110 23 22 92 85 152 140
60 55 125 116 145 135 52 50 79 70 91 70 5 0 8 4 4 9 -3 5 4 16 15 24 12 8 56
48 99 88 43 41 118 110 166 154 48 44 106 97 128 118 22 20 42 35 45 32 3 -3
10 5 17 18 6 12 18 21 26 19 8 -2 11 0 6 4 -7 7 8 23 164 164 45 41 99 91 120
110 87 81 203 187 232 214 38 33 63 56 181 161 50 44 106 96 126 115 20 19 76
71 124 115 98 89 94 86 265 245 67 63 132 120 144 127 12 7 18 12 14 13 -4 0
9 15 30 33 21 17 44 40 51 50 7 9 16 17 21 17 4 0 41 33 82 73 147 142 302
282 314 285 7 2 18 14 25 27 7 14 16 25 20 25 6 0 92 78 220 200 61 58 95 85
103 82 4 -1 6 2 5 7 -2 5 8 19 22 31 38 33 208 190 261 240 26 25 75 70 109
100 34 30 80 72 101 93 22 20 44 37 50 37 5 0 7 5 4 10 -3 6 -3 10 2 10 4 0
29 19 54 43 25 23 83 76 129 117 45 41 112 104 149 138 36 35 74 69 83 76 9 7
63 54 119 106 57 52 126 115 153 140 28 25 80 73 116 106 36 34 79 74 95 89
37 33 203 186 264 242 24 24 45 42 46 40 0 -1 -2 -78 -7 -172z m-718 -6236
c-5 -24 -17 -105 -25 -179 -9 -74 -22 -184 -30 -245 -24 -183 -54 -423 -70
-555 -8 -69 -17 -138 -20 -155 -6 -32 -22 -155 -54 -400 -33 -260 -62 -477
-76 -575 -8 -52 -23 -162 -34 -245 -12 -82 -27 -197 -36 -255 -44 -318 -57
-413 -67 -490 l-10 -85 -76 -72 c-43 -40 -90 -86 -107 -102 -16 -16 -49 -45
-72 -64 -23 -19 -39 -37 -36 -41 4 -3 2 -6 -4 -6 -6 0 -27 -13 -48 -30 -21
-16 -35 -30 -31 -30 4 0 -10 -15 -31 -32 -21 -18 -59 -54 -86 -80 -26 -27 -50
-48 -52 -48 -3 0 -39 -33 -80 -72 -41 -40 -90 -84 -109 -98 -19 -14 -32 -28
-29 -32 2 -5 0 -8 -5 -8 -4 0 -30 -20 -55 -45 -26 -25 -52 -45 -57 -45 -6 0
-10 -5 -10 -10 0 -14 -51 -59 -67 -60 -7 0 -13 -6 -13 -12 -1 -7 -12 -22 -26
-33 -14 -11 -58 -51 -99 -90 -41 -38 -94 -88 -120 -110 -46 -40 -73 -65 -205
-185 -125 -114 -135 -124 -217 -200 -45 -41 -118 -109 -163 -150 -45 -41 -100
-93 -123 -115 -23 -22 -76 -70 -117 -107 -71 -63 -173 -159 -267 -248 -23 -22
-43 -40 -46 -40 -2 0 -35 -30 -74 -67 -38 -38 -110 -104 -159 -148 -92 -82
-155 -141 -259 -240 -33 -32 -81 -75 -107 -98 -26 -22 -65 -57 -88 -78 -23
-22 -46 -39 -51 -39 -6 0 -7 -4 -4 -10 3 -5 2 -10 -2 -10 -5 0 -34 -24 -65
-52 -31 -29 -93 -87 -138 -128 -46 -41 -94 -87 -109 -101 -14 -15 -38 -34 -53
-44 -15 -9 -25 -21 -22 -26 3 -5 1 -9 -3 -9 -5 0 -38 -28 -73 -61 -36 -34 -98
-91 -139 -128 -41 -36 -100 -91 -132 -121 -33 -30 -86 -80 -120 -110 -34 -30
-76 -68 -93 -83 -17 -16 -47 -43 -67 -60 -19 -18 -86 -79 -149 -137 -62 -58
-121 -112 -130 -120 -30 -26 -211 -194 -254 -235 -23 -22 -69 -64 -101 -94
-130 -117 -250 -228 -290 -266 -22 -22 -81 -76 -129 -120 -49 -44 -94 -86
-102 -92 -7 -7 -18 -13 -25 -13 -7 0 -10 -3 -7 -6 3 -3 -17 -26 -45 -52 -28
-26 -68 -63 -88 -82 -37 -36 -75 -69 -142 -127 -21 -18 -34 -33 -30 -33 4 0
-7 -10 -24 -21 -18 -12 -33 -25 -33 -30 0 -5 -7 -9 -16 -9 -8 0 -12 -4 -9 -10
3 -5 2 -10 -3 -10 -5 0 -45 -35 -90 -77 -83 -80 -196 -182 -216 -195 -6 -4 -7
-8 -2 -8 5 0 -4 -10 -20 -22 -16 -13 -42 -35 -58 -50 -16 -16 -36 -28 -44 -28
-9 0 -12 -3 -8 -7 8 -9 -55 -74 -66 -67 -4 3 -8 -1 -8 -8 -1 -7 -12 -22 -27
-33 -14 -11 -51 -44 -82 -72 -31 -29 -59 -53 -63 -53 -5 0 -8 -7 -8 -15 0 -8
-5 -15 -10 -15 -6 0 -28 -17 -49 -37 -65 -63 -104 -98 -107 -96 -2 1 -27 -21
-56 -50 -29 -29 -83 -79 -120 -112 -94 -84 -225 -204 -269 -245 -20 -19 -74
-69 -119 -110 -45 -41 -99 -92 -120 -112 -21 -21 -40 -38 -42 -38 -3 0 -34
-28 -70 -63 -35 -34 -108 -102 -162 -151 -55 -49 -113 -103 -131 -120 -18 -17
-67 -62 -109 -101 -43 -38 -94 -86 -115 -105 -20 -19 -84 -78 -140 -130 -57
-52 -125 -114 -150 -138 -25 -24 -72 -67 -105 -95 -32 -29 -74 -69 -94 -89
-19 -21 -42 -38 -49 -38 -8 0 -12 -4 -8 -9 3 -5 -4 -12 -15 -16 -11 -4 -18
-11 -15 -16 4 -5 2 -9 -3 -9 -5 0 -44 -33 -86 -72 -127 -121 -146 -138 -159
-138 -8 0 -6 -4 3 -10 10 -6 -533 -10 -1542 -10 l-1557 0 67 62 c37 34 78 72
92 84 14 13 46 43 71 66 42 40 184 169 249 228 53 48 234 215 286 265 29 28
90 84 135 125 46 41 100 91 120 110 63 59 202 187 243 224 22 20 44 36 48 36
4 0 8 5 8 11 0 13 61 65 72 62 4 -2 8 2 8 7 0 6 12 22 28 36 15 14 61 56 102
94 156 144 174 160 183 160 4 0 5 5 2 10 -3 6 -2 10 2 10 5 0 32 22 61 49 29
27 52 47 52 45 0 -1 19 16 43 39 24 23 74 69 111 102 37 33 84 76 104 95 30
28 110 100 228 205 31 28 237 219 306 284 43 41 87 80 97 87 10 8 43 37 73 66
47 46 187 176 281 262 18 15 53 48 79 72 26 24 51 44 57 44 6 0 10 3 9 8 -2 4
19 27 47 52 27 25 66 61 86 80 110 106 162 150 177 150 12 0 13 3 5 8 -8 5 -3
14 17 27 17 11 30 23 30 28 0 4 7 7 16 7 8 0 13 4 10 9 -3 4 8 19 25 32 17 13
60 52 95 86 36 35 69 61 75 58 5 -4 8 -2 7 2 -3 11 90 103 104 103 5 0 6 5 3
10 -3 6 -2 10 3 10 5 0 32 23 60 50 29 28 52 49 52 47 0 -2 31 26 69 62 38 37
108 102 156 146 48 44 101 94 119 110 18 17 68 62 111 100 43 39 86 78 96 88
11 9 24 17 29 17 6 0 10 7 10 15 0 8 4 15 8 15 5 0 31 21 58 48 27 26 87 81
133 122 46 41 91 82 100 91 9 9 43 40 76 69 66 59 245 223 310 285 23 22 77
72 120 110 43 39 97 88 120 110 24 22 82 76 129 120 48 44 106 98 130 120 23
22 82 76 130 120 49 44 115 105 146 135 50 48 128 119 255 235 163 149 202
186 242 223 25 23 50 42 56 42 5 0 8 3 4 6 -6 6 8 20 88 89 26 22 63 57 83 78
19 20 41 37 49 37 7 0 13 6 13 13 0 7 12 21 27 32 25 19 68 58 139 126 17 16
33 27 37 24 4 -3 5 -2 3 1 -4 6 34 45 116 117 24 22 62 57 85 78 23 21 46 39
52 39 6 0 11 7 11 15 0 8 4 15 9 15 5 0 32 21 59 48 28 26 83 76 122 112 40
36 85 76 99 90 52 48 236 217 285 261 27 24 72 67 101 94 29 28 73 68 97 90
63 58 233 214 276 254 20 18 88 81 150 140 62 58 123 111 135 118 12 7 18 12
12 13 -5 0 4 10 20 23 15 12 56 49 91 82 34 33 99 94 144 135 45 41 90 83 98
93 9 9 22 17 30 17 7 0 10 5 7 10 -3 6 -2 10 2 10 5 0 45 35 89 78 71 67 164
152 279 257 37 33 176 160 235 215 21 19 75 69 121 110 45 41 99 92 121 113
21 20 39 37 41 37 2 0 29 24 59 53 31 28 88 81 128 117 40 36 79 72 88 81 10
9 42 38 72 64 56 49 238 215 296 270 43 41 119 111 254 235 63 58 133 123 156
145 23 22 79 74 124 115 45 41 98 90 118 109 67 61 254 235 306 285 28 26 68
62 89 80 21 17 71 63 112 101 89 84 217 203 266 248 20 17 57 51 82 75 25 23
51 42 56 42 6 0 11 5 11 10 0 11 23 40 28 35 1 -1 -2 -22 -8 -46z m-931 -6504
c-5 -27 -18 -104 -29 -170 -23 -143 -53 -320 -74 -430 -13 -69 -42 -232 -61
-345 -4 -19 -13 -69 -21 -110 -8 -41 -21 -115 -30 -165 -16 -92 -42 -233 -68
-365 -17 -88 -27 -145 -32 -180 -3 -14 -11 -59 -19 -100 -8 -41 -14 -87 -15
-102 0 -16 -4 -28 -8 -28 -5 0 -14 -42 -21 -92 -7 -51 -16 -97 -19 -103 -4 -5
-14 -50 -23 -100 -22 -115 -40 -185 -50 -185 -4 0 -10 -17 -14 -37 -4 -21 -15
-56 -25 -78 -10 -23 -22 -53 -25 -68 -4 -15 -11 -27 -15 -27 -4 0 -11 -16 -14
-35 -4 -19 -11 -35 -16 -35 -6 0 -10 -6 -10 -12 1 -16 -132 -282 -142 -286 -5
-2 -8 -8 -8 -13 0 -11 -90 -171 -101 -179 -3 -3 -21 -30 -38 -60 -100 -173
-333 -463 -522 -650 -134 -133 -206 -195 -347 -298 -13 -9 -33 -25 -44 -34
-12 -10 -25 -18 -29 -18 -4 0 -14 -6 -21 -13 -22 -21 -158 -101 -243 -143 -44
-21 -82 -42 -85 -45 -3 -4 -16 -9 -30 -13 -25 -7 -111 -41 -141 -56 -9 -5 -45
-14 -80 -20 -35 -6 -73 -16 -84 -20 -27 -12 -121 -27 -230 -36 -73 -6 -83 -9
-55 -15 19 -3 -502 -7 -1159 -8 l-1194 -1 29 23 c16 12 52 45 81 72 28 28 80
75 114 105 34 30 92 84 130 120 37 36 100 94 140 130 166 151 286 262 355 328
30 28 59 52 64 52 6 0 10 6 10 14 0 8 4 16 9 18 13 4 120 98 149 131 14 15 31
27 39 27 7 0 13 4 13 8 0 11 22 34 125 127 49 44 94 86 101 93 7 6 17 12 23
12 6 0 11 7 11 15 0 8 4 15 9 15 5 0 27 18 49 40 22 21 64 60 94 86 29 26 85
77 124 113 209 193 262 241 288 262 15 13 45 40 66 59 21 19 87 80 146 135 60
55 128 118 151 140 23 22 65 60 93 85 29 25 76 68 105 95 51 48 196 184 339
316 38 35 73 63 77 61 5 -1 9 3 9 9 0 7 12 23 28 36 43 40 170 156 257 238 44
41 86 75 93 75 6 0 12 5 12 10 0 6 12 22 28 36 15 14 62 57 105 97 43 40 95
87 115 105 20 19 64 59 98 90 33 32 105 98 159 147 54 50 115 107 136 128 20
20 39 37 42 37 4 0 30 24 60 53 30 28 82 77 116 107 33 30 81 73 104 95 24 22
88 81 142 130 54 50 122 113 151 140 30 28 74 68 100 90 48 42 83 73 181 165
33 30 97 89 143 130 46 41 95 87 109 101 14 15 27 26 27 25 1 0 -2 -23 -7 -51z"/>
</g>
</svg>
